<?xml version="1.0" encoding="UTF-8" standalone="no"?>
<svg width="175px" height="220px" viewBox="0 0 175 220" version="1.1" xmlns="http://www.w3.org/2000/svg" xmlns:xlink="http://www.w3.org/1999/xlink" xmlns:sketch="http://www.bohemiancoding.com/sketch/ns">
    <!-- Generator: Sketch 3.0.1 (7597) - http://www.bohemiancoding.com/sketch -->
    <title>chaplin</title>
    <description>Created with Sketch.</description>
    <defs></defs>
    <g id="Page-1" stroke="none" stroke-width="1" fill="none" fill-rule="evenodd" sketch:type="MSPage">
        <g id="chaplin" sketch:type="MSLayerGroup" transform="translate(-30.000000, -66.000000)" fill="#FFFFFF">
            <path d="M144.1,150.3 C138,150.4 131.4,150.1 124.9,149.6 C116.5,148.8 108.2,147.6 100,145.3 C96.8,144.4 93.6,143.3 90.6,141.8 C89.1,141 87.7,140.2 86.3,139.1 C84.9,138 83.7,136.7 82.8,135.1 C82.4,134.5 82.2,133.8 82,133.1 C81.7,131.9 82,130.9 83,130.2 C83.7,129.6 84.5,129.2 85.4,129 C87.4,128.4 89.5,128.3 91.6,128.1 C93.4,128 95.2,127.9 96.9,127.7 C98,127.6 99.1,127.4 100.1,127.1 C101.1,126.9 101.8,126.2 102.1,125.3 C102.4,124.2 102.7,123.1 102.9,121.9 C103.2,119.6 103.2,117.3 103.1,115 C102.9,111.1 102.7,107.3 102.9,103.4 C103,99.7 103.3,96.1 104,92.5 C104.6,89.3 105.5,86.2 107,83.3 C108.8,79.8 111.3,76.9 114.5,74.6 C117.4,72.6 120.5,71.2 123.7,70 C127,68.8 135.8,66.4 143.5,66.4 C151.1,66.4 161.6,68.4 166.3,70 C170.1,71.3 173.6,73.2 176.5,75.9 C180.3,79.4 183,83.5 184.1,88.5 C184.8,91.8 184.4,95.5 184.4,97.7 C184.5,106.3 184.6,114.9 184.8,123.5 C184.8,125.8 185.8,127.1 188,127.8 C189.2,128.2 190.4,128.2 191.6,128.2 C193.6,128.2 195.7,128.2 197.7,128.1 C198.8,128.1 199.8,128.2 200.8,128.5 C202.8,129.1 203.9,130.4 204,132.5 C204.1,134.1 204,136.6 202.8,138.2 C202.2,139 201.3,139.6 200.4,140.2 C198.5,141.6 196.4,142.5 194.3,143.4 C190.8,144.8 187.3,145.8 183.6,146.6 C178.3,147.8 172.9,148.7 167.5,149.3 C159.8,150 152.2,150.4 144.1,150.3" id="Shape" sketch:type="MSShapeGroup"></path>
            <path d="M93.9,173.2 C93.8,176 93.5,178.4 92.9,180.6 C92.7,181.4 92.3,182.2 91.9,182.9 C91.2,184.1 90.2,184.8 88.9,185.3 C87.5,185.8 86.3,185.3 85.6,184 C85,182.9 84.7,181.7 84.5,180.4 C84.3,178.4 85,177.6 85.1,174.3 C84.9,167.4 80.2,167 77.1,168.1 C74,169.6 72.3,171.6 70.7,175.3 C70.5,175.8 70.3,176.3 70.2,176.8 C64.2,196.1 58.3,215.4 52.3,234.7 C49.9,242.4 39,279 38.1,280.8 C37.5,281.9 37.1,283.3 36.2,284.1 C35.5,284.8 34.6,285.3 33.6,285.5 C32.8,285.7 32.1,285.7 31.3,285.4 C30,284.9 30.2,282.5 30.2,281.5 C30.3,279 31.2,276.6 31.7,274.2 C32.8,269.2 40.6,244.1 43,236.4 C46.6,225 50.2,213.5 53.8,202.1 C57.4,190.8 60.9,179.4 64.5,168.1 C64.7,167.4 65.5,165 66.9,163.1 C68.3,161.6 71.3,157.3 78.7,157.8 C81.3,158.1 83.8,158.6 86.1,159.7 C90.4,161.7 92.9,165.2 93.7,169.8 C93.7,171.1 93.8,172.4 93.9,173.2" id="Shape" sketch:type="MSShapeGroup"></path>
            <path d="M131.3,204.3 C130.5,204 131.1,199.8 131.9,195 C132.6,189.7 138.6,187.9 142.8,187.7 C144.7,187.6 146.7,187.8 148.6,188.2 C149,188.3 149.4,188.4 149.8,188.5 C152.6,189.3 154.4,191 155.2,193.9 C155.3,194.3 155.4,194.7 155.5,195.1 C156,198 156.2,200.9 156,203.9 C156,204.1 156,204.4 155.8,204.4 C154.2,204.7 132.9,204.6 131.3,204.3" id="Shape" sketch:type="MSShapeGroup"></path>
        </g>
    </g>
</svg>