<?xml version="1.0" encoding="UTF-8" standalone="no"?>
<svg width="132px" height="137px" viewBox="0 0 132 137" version="1.1" xmlns="http://www.w3.org/2000/svg" xmlns:xlink="http://www.w3.org/1999/xlink" xmlns:sketch="http://www.bohemiancoding.com/sketch/ns">
    <!-- Generator: Sketch 3.0.1 (7597) - http://www.bohemiancoding.com/sketch -->
    <title>dali</title>
    <description>Created with Sketch.</description>
    <defs></defs>
    <g id="Page-1" stroke="none" stroke-width="1" fill="none" fill-rule="evenodd" sketch:type="MSPage">
        <g id="dali" sketch:type="MSLayerGroup" transform="translate(-82.000000, -72.000000)" fill="#FFFFFF">
            <path d="M98.5,165.5 C98.4,165.8 97.3,165.4 97.1,164.9 C97,164.5 96.9,164.1 96.7,163.7 C96.4,162.8 96,162 95.6,161.1 C95.2,160.1 94.1,158.7 93,158.5 C92.1,158.4 90.9,158.8 90,158.6 C89.2,158.4 89.2,158.2 88.6,157.6 C87.7,156.6 86.9,155.5 86.3,154.3 C85.3,152.3 84.7,150.2 84.2,148 C83.3,144.2 82.8,140.4 82.6,136.5 C82.4,133 82.4,129.5 82.6,125.9 C82.8,122.4 83.2,119 83.9,115.6 C84.9,110.8 86.8,106.3 89,101.9 C90.3,99.2 91.8,96.6 93.7,94.2 C97.7,89.1 102.7,85.4 108.7,82.9 C110.9,82 113.2,81.4 115.6,81 C118.5,80.6 121.4,80.1 124.4,79.6 C125.9,79.4 127.3,78.9 128.7,78.3 C131.1,77.3 133.4,76.2 135.8,75.2 C137.6,74.5 139.5,73.8 141.3,73.2 C145.6,71.9 149.9,71.9 154.2,72.7 C157.6,73.4 160.9,74.5 164.1,75.8 C164.1,75.8 164.2,75.8 164.2,75.9 C168,77.6 172,78.7 176.1,79.4 C179.9,80.1 183.6,81.3 187.2,82.7 C195.8,86.2 202.3,92.1 206.4,100.4 C209.1,105.8 211,111.5 212,117.5 C213,123.3 213.4,129.1 213.3,135 C213.2,139.8 212.8,144.5 211.6,149.2 C211.1,151.1 210.5,153 209.6,154.7 C208.9,156.1 208,157.3 206.8,158.4 C206.2,158.9 205.6,159.3 204.7,159.4 C203.8,159.5 203.2,159.2 202.3,159.3 C201.7,159.4 200.9,160.2 200.7,160.8 C200.3,161.8 199.9,162.8 199.5,163.8 C199.3,164.4 199,164.9 198.8,165.4 C198.2,165.8 197.7,165.7 197,165.6 C196.8,165.5 196.9,164.5 196.9,164 C196.9,161.4 197.3,158.7 197.7,156.1 C198.2,152.6 198.9,149 199.4,145.5 C200.2,139.5 199.9,133.6 198.5,127.7 C197.1,121.7 195.3,115.9 192.8,110.3 C192,108.4 191,106.6 189.9,104.8 C188.7,103 187.3,101.6 185.5,100.4 C183.4,99.1 181.2,97.9 178.9,97 C175.6,95.7 172.3,94.5 169,93.2 C168.2,92.9 166.3,92.9 165.5,93.2 C163.9,93.9 158.7,94.9 152.5,95.3 C147.6,95.6 130.8,93.4 129.8,93.1 C128.5,92.7 127.1,92.8 125.8,93.1 C123.4,93.7 121.2,94.6 118.9,95.5 C117,96.3 115.2,97.2 113.4,98 C111.1,99.1 109.2,100.7 107.6,102.6 C105.4,105.3 103.6,108.1 102.1,111.2 C99.9,115.7 98.1,120.4 96.9,125.3 C96,128.9 95.4,132.5 95.6,136.2 C95.7,138.5 96,140.8 96.3,143.2 C96.8,146.8 97.4,150.4 97.8,154 C98.1,156.2 98.3,158.4 98.4,160.7 C98.9,162.5 98.8,164 98.5,165.5" id="Shape" sketch:type="MSShapeGroup"></path>
            <path d="M151.2,200.2 C152.8,196.1 155.8,194.1 160,194.2 C162,194.3 164,194.7 165.9,195.3 C167.9,195.9 169.8,196.7 171.8,197.4 C173.7,198.1 175.5,198.8 177.4,199.1 C180.5,199.6 183.5,198.1 184.5,195.1 C185.9,191.2 186.5,187.2 185.9,183 C185.4,179.4 183.9,176.3 181.8,173.4 C180.7,171.9 179.5,170.6 178.3,169.2 C176.5,167.2 174.6,165.3 172.7,163.4 C172.5,163.2 172.3,162.9 171.9,162.5 C172.4,162.6 172.6,162.6 172.8,162.6 C177.5,164.4 181.4,167.2 184.4,171.2 C187.7,175.6 189.5,180.5 190,186 C190.4,190.4 189.8,194.6 188.3,198.7 C187.7,200.5 186.7,202.2 185.3,203.6 C183.5,205.5 181.4,206.6 178.8,206.7 C176.4,206.8 173.9,206.6 171.5,206.3 C166.3,205.5 161.1,204.3 156.1,202.7 C154.8,202.3 153.6,201.8 152.3,201.3 C152,201 151.2,200.8 151.2,200.2" id="Shape" sketch:type="MSShapeGroup"></path>
            <path d="M144,201.7 C143.4,201.6 142.7,201.5 142.1,201.4 C139.6,201.1 137.2,201.6 135,202.7 C132.8,203.7 130.6,204.9 128.5,206 C127,206.8 125.5,207.5 124,208 C120.8,209 117.7,209 114.6,207.8 C108.3,205.4 104.7,200.7 103.4,194.2 C102.6,190.3 102.9,186.5 103.8,182.6 C104.7,178.5 106.4,174.6 108.7,171.1 C109.7,169.5 111,168.2 112.5,167 C114.4,165.6 116.3,164.3 118.1,162.9 C118.4,163.3 118.1,163.5 117.9,163.6 C116.5,165.2 115.2,166.9 113.7,168.4 C110.9,171.3 109.2,174.8 108,178.6 C107.1,181.2 106.6,183.9 106.5,186.7 C106.4,189.6 106.7,192.4 107.7,195.1 C108.1,196.2 108.6,197.2 109.4,198 C110.5,199.3 111.9,199.9 113.6,200 C114.9,200.1 116.2,199.9 117.4,199.5 C119.5,199 121.4,198.2 123.4,197.4 C124.8,196.8 126.3,196.2 127.7,195.7 C128.7,195.3 132.3,194 135.8,194.2 C139.3,194.4 141.9,195.4 142.4,196.1 C143.1,196.9 143.4,197.6 143.8,198.4 C144.1,198.9 144.3,199.6 144.4,200.1 C144.6,200.8 144.5,201.7 144,201.7" id="Shape" sketch:type="MSShapeGroup"></path>
            <path d="M194.4,137.7 C194.2,137.9 193.8,137.5 193.6,137.4 C192.6,136.8 191.6,136.1 190.6,135.4 C189.6,134.8 188.7,134.1 187.7,133.6 C183.6,131.3 179.3,131.3 175,133.1 C173.6,133.7 172.3,134.4 171,135.2 C169.6,135.9 168.3,136.7 166.9,137.4 C165.7,138.1 164.4,138.6 163,138.9 C161.7,139.2 160.4,139.2 159.2,138.7 C158.3,138.4 158.1,138.1 158.2,137.2 C158.4,134.9 159.4,132.9 161.3,131.5 C162.1,130.8 163.1,130.3 164,129.7 C166,128.6 168.1,128 170.3,127.5 C171.3,127.2 172.3,127.1 173.3,126.8 C176.4,125.9 179.4,126.1 182.5,126.8 C184.1,127.2 185.6,127.6 187,128.4 C190.6,130.4 192.8,133.4 194.3,137.2 C194.4,137.2 194.5,137.6 194.4,137.7" id="Shape" sketch:type="MSShapeGroup"></path>
            <path d="M98.8,143.7 C98.7,143.8 98.7,143.1 98.7,142.9 C99.2,140.4 100.4,138.4 102.6,137 C104.3,136 106.1,135.2 108,134.7 C110.4,134.1 112.8,133.5 115.2,132.9 C115.7,132.8 116.2,132.7 116.7,132.7 C121.1,132.6 125.4,132.6 129.7,133.4 C131.2,133.7 132.6,134 134,134.7 C134.8,135.1 135.7,135.6 136.4,136.1 C137.5,137 138.3,138.2 138.3,139.8 C138.3,140.1 137.6,140.4 137.2,140.5 C135.6,141.1 134.1,141.4 132.4,141.5 C130.5,141.7 128.6,141.4 126.7,140.8 C125.3,140.3 124,139.8 122.6,139.3 C121.6,138.9 120.6,138.5 119.5,138.2 C117.2,137.5 114.9,137.3 112.6,137.5 C111.6,137.6 110.6,137.8 109.6,138.3 C106.5,139.9 103.3,141.4 100.1,143 C100,143.3 99,143.9 98.8,143.7" id="Shape" sketch:type="MSShapeGroup"></path>
        </g>
    </g>
</svg>