<?xml version="1.0" encoding="UTF-8" standalone="no"?>
<svg width="166px" height="147px" viewBox="0 0 166 147" version="1.1" xmlns="http://www.w3.org/2000/svg" xmlns:xlink="http://www.w3.org/1999/xlink" xmlns:sketch="http://www.bohemiancoding.com/sketch/ns">
    <!-- Generator: Sketch 3.0.1 (7597) - http://www.bohemiancoding.com/sketch -->
    <title>einstein</title>
    <description>Created with Sketch.</description>
    <defs></defs>
    <g id="Page-1" stroke="none" stroke-width="1" fill="none" fill-rule="evenodd" sketch:type="MSPage">
        <g id="einstein" sketch:type="MSLayerGroup" transform="translate(-65.000000, -72.000000)" fill="#FFFFFF">
            <path d="M153,186.5 C157.7,186.6 160.3,186 164.7,186.2 C168.3,186.3 174.1,189.5 174.5,195 C174.6,197.1 174.4,199 173.5,200.9 C173.2,201.4 173,202 172.4,202.5 C170.9,203.6 165.3,203.6 161.8,203 C159.3,202.5 156.8,202 154.3,201.7 C152.1,201.4 149.9,201.3 147.7,201.1 C145.9,201 144.1,201.2 142.4,201.9 C139.4,203.1 136.2,203.6 133,203.7 C130.9,203.8 129.1,202.5 128.5,200.5 C127.6,197.6 127.5,194.6 128.2,191.7 C128.5,190.4 130.1,188.4 132.3,187.4 C135.3,186 137.9,186.1 138.2,186.1 C142.6,186 148.8,186.5 153,186.5" id="Shape" sketch:type="MSShapeGroup"></path>
            <path d="M152.4,207.4 C151.5,207.5 151.5,211.2 151.5,212.8 C151.5,213.2 151.5,215.1 151.6,215.5 C151.7,215.9 152.3,216.2 152.6,216.1 C152.7,216 152.7,215.5 152.7,215.3 C152.7,213.2 152.7,209.8 152.6,207.7 C152.6,207.6 152.6,207.4 152.4,207.4 M159.8,205.9 C160.5,206.4 160.2,207.5 160,208.3 C159.7,209.8 157.6,218.5 154.2,218.6 C145.4,218.3 144.7,211.1 143.6,206.7 C143.5,206.4 143.5,206.2 143.4,205.9 C143.3,205.3 143.6,204.9 144.1,204.8 C144.6,204.7 145.2,204.7 145.7,204.7 C149.2,204.7 152.3,204.6 155.8,204.5 C157.3,204.4 158.6,204.9 159.8,205.9" id="Shape" sketch:type="MSShapeGroup"></path>
            <path d="M111.3,208.3 C110.4,209.3 108.7,208.6 107.8,208.3 C105.4,207.6 103,207.3 100.9,205.5 C99,203.9 97.7,202.7 95.4,202 C93,201.3 90.6,200.7 88.2,200.1 C83,198.9 81.7,194 78.1,190.6 C76.4,189 74.8,187.1 73.3,185.3 C71.8,183.4 69.5,181.8 69.3,179.3 C69.2,177.8 69.6,176.3 69.9,174.8 C70.4,172.9 70.6,172.9 69.2,171.8 C67.4,170.3 65.2,169.6 65.6,166.7 C65.8,165.3 66.8,163.8 68.2,163.1 C70.6,161.9 70,164.3 71.6,164.4 C71.8,162.8 71.1,162 70.6,160.6 C70.2,159.4 70.1,157.8 69.9,156.5 C69.6,153.9 68.4,150.1 69.5,147.7 C70.2,146.1 71.1,145.9 72.4,146.7 C73.4,147.3 74.4,149 74.9,146.7 C75.5,143.6 71.3,143.6 70.1,141.9 C68.9,140.2 69.5,136.1 70.2,134.3 C70.6,133.3 71.1,131.9 72.2,132.4 C73,132.8 73.3,134.7 74.1,135.3 C76.5,137.3 78.6,134.6 77.7,132.2 C77.1,130.7 76.5,130.8 77.6,129.1 C78.3,128 79.2,127.2 80.5,127.2 C80.5,126 78.1,122.8 81.5,123.9 C81.4,120.9 80.9,117.8 80.3,114.8 C80.1,113.8 79.7,111 81.6,111.5 C82.7,111.8 83,114.1 84.3,114.6 C85.5,112.9 84.5,111.2 85,109.5 C85.3,108.3 86.4,107.8 87.1,106.9 C87.7,106.1 87.9,105.3 88.6,104.6 C89.9,103.4 92.2,102.8 93.9,102.5 C96.5,102.1 100.2,103 99.7,99.1 C99.5,97.5 98.5,97.2 99.4,96 C99.6,95.7 100.3,95.5 100.6,95.1 C101,94.7 101.1,93.9 101.3,93.6 C102.2,92.6 103.2,92.9 104.5,92.4 C105.5,92 106.4,91.3 107.5,90.9 C108.6,90.5 110.7,90.5 110.9,89 C111,88 109.4,86.3 108.7,85.9 C109.1,84.5 111.1,84.9 112.3,84.4 C113.5,83.9 114.1,83.1 115.1,82.5 C117.2,81.2 119.5,80.8 121.4,78.8 C122.2,78 122.6,76.2 123.5,75.6 C125.2,74.6 125.4,76.3 126.3,77.1 C127.4,78.1 129.2,77.9 130.6,77.7 C131.2,77.6 135.3,75.9 142.2,75.3 C145.9,75 146.9,72 148,72.7 C150.1,74.5 149.4,77.5 152.9,77.3 C159.2,77.1 159.3,74.1 160.1,74.1 C161,74.1 163,77.2 171.3,77.8 C178.1,78.3 181.9,76.4 182.6,77.1 C183.2,78 181.9,79.1 182.3,80.4 C182.6,81.4 183.8,82.4 184.7,82.9 C185.5,83.3 187.6,83.3 188,84.2 C188.3,85.1 187.1,86.6 187.6,87.9 C188.5,90.5 191.1,92.3 193.5,93.4 C194.7,93.9 200.8,94.4 202.3,95.8 C203.6,96.9 202.2,102.1 202.5,102.4 C203,102.8 205.6,99.8 206.6,100.4 C209.4,102 209.2,105.8 209.7,106.5 C210.5,107.5 211.2,106.8 212.2,107.7 C214.4,109.7 216.4,109.8 215.5,113.1 C214.8,115.8 215.1,117.7 217.1,119.8 C220.4,123.3 226.3,132.9 224.7,135.5 C224,136.7 214.3,137.2 218,139.6 C218,139.6 223.9,140.7 224.2,141.4 C225.1,143.3 224.6,143.8 225,145.9 C225.4,148.1 224.4,153.4 224.1,155.4 C223.9,156.7 224.1,158.1 225.3,158.7 C226.9,159.5 227.9,158 226.9,156.7 C229.7,157.4 231.6,160.1 229.5,162.7 C227.7,164.9 224.8,165.5 227.4,168.5 C228.3,169.6 229.4,170.2 228.9,171.7 C228.6,172.8 227.7,173.9 227.4,175 C226.7,177.5 224.5,179 224.1,181.6 C223.8,183.6 224.1,183.6 222.1,184.1 C220.8,184.4 219.3,184.7 218,185.1 C212.6,187 219.4,194.4 214.4,195.2 C214.4,193.9 215.6,192.8 214.5,191.4 C213.5,190.1 212.1,190.4 211,191.5 C209.9,192.6 210.1,193.5 209.7,194.9 C209.4,196.3 208.8,196.6 207.8,197.7 C206.6,199 207.1,199.7 206.8,201.1 C206.5,202.3 204.4,202 203.8,202.1 C201.1,202.4 198.9,203.4 196.4,204.2 C194,205 190.7,207.1 188.7,204.2 C186.9,201.5 189,198.8 189.8,196.1 C191.5,190.3 190.8,172.6 190.8,169.6 C190.8,166.5 190.4,163.5 190.3,160.5 C190.2,157.6 190.2,155 189.8,152.2 C189.4,149.5 187.4,139.4 186.5,137.2 C185.6,134.9 179.9,121.6 175.2,118.8 C171.1,116.3 166.3,114.6 161.6,114.2 C156.4,113.7 150.5,113 145.2,113.3 C134.7,113.9 123.3,115.1 115.8,123.3 C112.4,127 109.8,131 107.7,135.5 C106.5,138 106.4,140.9 106,143.6 C105.6,146.4 105.7,149.3 106,152.2 C106.5,157.4 110.4,162.7 110.7,168 C111,173.2 109.7,178.4 109.2,179.8 C108.8,181 108.1,182.3 108.5,183.6 C108.9,185.1 110.4,186.4 111.1,187.7 C112.2,189.5 112.7,191.1 112.8,193.2 C112.9,195.3 112.2,197.1 111.8,199.1 C111.5,200.6 111.3,202.6 111.2,204.1 C111.2,205.2 112.2,207.3 111.3,208.3" id="Shape" sketch:type="MSShapeGroup"></path>
        </g>
    </g>
</svg>