<?xml version="1.0" encoding="UTF-8" standalone="no"?>
<svg width="154px" height="134px" viewBox="0 0 154 134" version="1.1" xmlns="http://www.w3.org/2000/svg" xmlns:xlink="http://www.w3.org/1999/xlink" xmlns:sketch="http://www.bohemiancoding.com/sketch/ns">
    <!-- Generator: Sketch 3.0.1 (7597) - http://www.bohemiancoding.com/sketch -->
    <title>ghandi</title>
    <description>Created with Sketch.</description>
    <defs></defs>
    <g id="Page-1" stroke="none" stroke-width="1" fill="none" fill-rule="evenodd" sketch:type="MSPage">
        <g id="ghandi" sketch:type="MSLayerGroup" transform="translate(-72.000000, -76.000000)">
            <path d="M180.3,209.7 C179.7,209.5 179.2,209.4 178.7,209.2 C175.6,208.2 172.5,207.1 169.4,206 C166.9,205.1 164.3,205 161.7,205.5 C159.5,205.9 157.4,206.4 155.3,207 C151.9,208 148.5,207.9 145,207 C143.1,206.5 141.3,205.9 139.6,205 C137.1,203.8 134.5,203.5 131.9,203.6 C128.1,203.8 123,206.2 119.4,207.4 C116.1,206 118.8,198.1 121.9,195.6 C124.1,194 130,192.9 131.5,193 C136.8,193.3 139.4,196.7 140.3,197.4 C141.3,198.2 142.2,198.9 143.3,199.6 C144.6,200.5 146,201.2 147.4,201.8 C149.3,202.6 151.2,202.7 153.2,202 C154.5,201.6 155.7,201 156.8,200.3 C158.3,199.3 159.9,198.3 161.4,197.2 C162.3,196.6 163.2,196 164.1,195.4 C164.9,194.9 165.8,194.6 166.7,194.7 C167.8,194.8 168.8,194.9 169.9,195.1 C173,195.9 175.9,197.1 178.7,198.6 C180.7,199.7 181.5,201.2 181.5,203.4 C181.5,205.2 181.2,206.9 180.7,208.5 C180.6,209.1 180.5,209.4 180.3,209.7" id="Shape" fill="#FFFFFF" sketch:type="MSShapeGroup"></path>
            <path d="M180.3,209.7 C179.7,209.5 179.2,209.4 178.7,209.2 C175.6,208.2 172.5,207.1 169.4,206 C166.9,205.1 164.3,205 161.7,205.5 C159.5,205.9 157.4,206.4 155.3,207 C151.9,208 148.5,207.9 145,207 C143.1,206.5 141.3,205.9 139.6,205 C137.1,203.8 134.5,203.5 131.9,203.6 C128.1,203.8 123,206.2 119.4,207.4 C116.1,206 118.8,198.1 121.9,195.6 C124.1,194 130,192.9 131.5,193 C136.8,193.3 139.4,196.7 140.3,197.4 C141.3,198.2 142.2,198.9 143.3,199.6 C144.6,200.5 146,201.2 147.4,201.8 C149.3,202.6 151.2,202.7 153.2,202 C154.5,201.6 155.7,201 156.8,200.3 C158.3,199.3 159.9,198.3 161.4,197.2 C162.3,196.6 163.2,196 164.1,195.4 C164.9,194.9 165.8,194.6 166.7,194.7 C167.8,194.8 168.8,194.9 169.9,195.1 C173,195.9 175.9,197.1 178.7,198.6 C180.7,199.7 181.5,201.2 181.5,203.4 C181.5,205.2 181.2,206.9 180.7,208.5 C180.6,209.1 180.5,209.4 180.3,209.7 L180.3,209.7 Z" id="Shape" stroke="#FFFFFF" stroke-width="0.16" sketch:type="MSShapeGroup"></path>
            <path d="M177.9,180.3 C174.4,180.6 171.1,180 167.8,179 C167,178.8 166.3,178.4 165.6,178 C162.4,176 159.5,173.5 157.6,170.2 C156.7,168.6 155.5,167.2 154.9,165.4 C154.6,164.6 153.9,164.1 153,164 C152.3,163.9 151.6,163.9 150.9,163.9 C150,163.9 149.1,164 148.1,164 C147.2,164 146.5,164.4 146.1,165.1 C145.4,166.3 144.6,167.4 144,168.7 C142.4,172.1 139.9,174.7 137,176.9 C136.8,177.1 136.5,177.3 136.2,177.4 C133.4,178.9 130.5,180.1 127.3,180.5 C125.6,180.7 123.8,180.7 122.1,180.6 C120.5,180.5 118.9,180.2 117.3,179.9 C115.4,179.5 113.7,178.8 112.1,177.7 C107.4,174.5 104.1,170.2 102.7,164.6 C102.2,162.9 102,161.1 101.9,159.3 C101.8,158 101.2,157.1 100,156.6 C99.7,156.5 94.7,154.5 93.9,153.4 C90.6,148.9 93.2,149.1 93.9,150.1 C94.1,150.3 93.9,151.2 94.3,151.9 C95.6,154.4 99.6,154.5 99.8,154.4 C101.7,153.7 102.4,152.9 102.7,151.8 C104.2,147.5 107,144.2 110.3,141.2 C111.5,140.1 112.9,139.3 114.4,138.8 C115.3,138.5 116.2,138.1 117.1,137.8 C118.8,137.2 120.5,137 122.2,137 C124.3,136.9 126.4,136.9 128.5,137.2 C131.4,137.6 134,138.6 136.5,140.2 C138.3,141.4 139.9,142.8 141.3,144.4 C141.9,145.1 142.3,145.8 142.7,146.6 C143.6,148.3 144.4,150.1 145.1,151.9 C146.1,154.2 146.6,156.7 146.9,159.2 C147.1,161.4 147.8,161.7 149.7,161.8 C150.8,161.9 151.9,161.8 153.1,161.7 C154.2,161.6 154.5,161.3 154.7,160.2 C154.9,158.8 155.2,157.5 155.2,156.1 C155.5,150.5 158,146 162.1,142.2 C162.6,141.7 163.2,141.3 163.8,140.9 C167,138.9 170.5,137.4 174.3,137 C176.1,136.8 178,136.9 179.8,136.9 C180.9,136.9 182,137 183.1,137.3 C185.7,137.9 188.1,139.2 190.2,140.8 C192.8,142.8 195,145.1 196.5,148 C197.3,149.5 198.2,151 198.8,152.7 C199.2,153.9 199.2,154.2 199.8,154.8 C200.3,155.3 203.7,153.6 204.7,151.3 C205,150.6 205.7,151 206,150.6 C206.6,150 206,150.8 206.5,150.2 C206.5,150.2 205.7,152.3 204.5,154.2 C203.9,155.2 202.9,156.1 202.4,156.5 C201.6,157.2 199.6,157 199.3,158.9 C199.1,160.2 198.9,161.4 198.7,162.7 C198.6,163.6 198.4,164.5 198.3,165.4 C197.9,167.3 197.2,169 196.1,170.6 C194.7,172.6 193.2,174.4 191.4,176 C187.9,179.1 183.8,180.6 179.1,180.8 C178.6,180.4 178.3,180.3 177.9,180.3" id="Shape" fill="#FFFFFF" sketch:type="MSShapeGroup"></path>
            <path d="M200.8,196.4 C204.1,196.1 207.5,195.4 210.4,193.5 C213.3,191.6 215,188.6 215.9,185.3 C216.5,183.1 216.8,180.9 217.4,178.8 C218.1,176.6 219.5,174.8 220.8,172.9 C222.1,171.1 223.5,169.3 224.4,167.2 C225.2,165.3 225.3,163.1 225.4,161.1 C225.5,157.7 225.3,154.1 224.5,150.8 C223.8,147.7 222.4,144.3 219.4,142.9 C216.8,141.7 213.8,142.3 211.3,143.4 C208.8,144.5 206.4,146.4 205,148.8 C205.3,149.4 205.6,150 205.9,150.6 C206.2,148.2 207.1,145.9 207.8,143.6 C208.4,141.5 208.8,139.3 209.3,137.1 C210,134.2 210.7,131.3 211.1,128.3 C211.4,125.6 211.3,122.8 211,120 C210.8,118.1 210.4,116.3 210.1,114.4 C209.7,112.2 209.3,110.1 208.7,108 C206.6,100.3 201.9,93.3 195.8,88.1 C192.7,85.5 189.3,83.4 185.5,82 C181.8,80.6 177.9,79.8 174.1,79.1 C162.9,77.1 151.2,76.6 139.8,77.2 C130.8,77.6 121.7,78.8 113.2,81.8 C105.6,84.4 99.2,90 94.7,96.6 C92.5,99.9 90.7,103.5 89.6,107.4 C88.6,110.7 88.3,114.1 88.1,117.5 C87.7,125.7 88.2,134.2 90,142.2 C90.6,145 91.8,147.7 92.2,150.6 L93.1,148.8 C90.2,144 82.2,139.7 77.2,143.9 C74.3,146.4 73.4,150.9 73,154.5 C72.8,156.4 72.7,158.3 72.7,160.2 C72.7,162.3 72.8,164.4 73.4,166.5 C74.6,170.3 77.7,173.1 79.7,176.4 C81.7,179.8 81.6,184 83,187.6 C84.1,190.3 86,192.6 88.6,194.1 C91.3,195.6 94.4,196.2 97.4,196.5 C98.2,196.6 98.3,193.4 97.4,193.3 C94.1,193 90.7,192.3 87.9,190.3 C84.9,188.2 83.6,185.1 82.9,181.6 C82.4,179.4 82,177.2 81.1,175.1 C80.2,173 78.7,171.2 77.3,169.3 C76.1,167.7 74.7,165.9 74.2,163.9 C73.8,162.1 73.9,160.2 73.9,158.3 C74.1,153.8 74.8,146.7 80.3,145.6 C84.8,144.7 90.1,147.8 92.4,151.6 C92.6,151.9 92.9,151.9 93,151.6 C93.3,151.1 93.4,150.4 93.3,149.8 C93,147.3 92.2,145 91.5,142.6 C90.9,140.6 90.5,138.5 90.2,136.5 C89.6,132.4 89.2,128.2 89.2,124 C89.1,120.5 89.2,116.9 89.7,113.4 C90.1,110.2 91.3,106.6 92.9,103.5 C96.5,96.3 102.4,90.3 109.6,86.6 C113.6,84.6 118,83.5 122.3,82.6 C126.8,81.7 131.3,81.1 135.8,80.7 C141.2,80.3 146.7,80.2 152.2,80.3 C158.2,80.4 164.3,80.9 170.3,81.7 C174.2,82.3 178.2,83 182,84.1 C185.9,85.2 189.5,86.9 192.8,89.2 C199.3,93.8 204.5,100.5 207.1,108 C207.8,109.9 208.2,111.9 208.6,114 C209,115.9 209.3,117.9 209.6,119.8 C209.7,120.5 209.8,121.3 209.9,122 C209.9,122.3 210,122.7 210,123 L210,123.5 L210,123.8 L210,125.6 L210,126 C210,125.6 210,126.1 210,126.1 C210,126.4 209.9,126.8 209.9,127.1 C209.8,128.4 209.6,129.3 209.3,130.6 C209,132.2 208.6,133.8 208.2,135.4 C207.7,137.6 207.2,139.8 206.7,141.9 C206,144.3 205.2,146.6 204.8,149.1 C204.8,149.3 204.7,149.5 204.7,149.7 C204.6,150.2 204.7,150.8 204.9,151.3 C205,151.6 205.4,152 205.7,151.6 C208.5,146.9 217.2,142.5 221.5,147.8 C223.7,150.6 224.1,154.8 224.2,158.1 C224.3,159.9 224.3,161.8 224,163.7 C223.6,165.7 222.2,167.5 221.1,169.1 C220.1,170.4 219.1,171.8 218.2,173.2 C217.2,174.7 216.7,176.3 216.2,178 C215.4,180.9 215.2,184.1 213.7,186.8 C211.1,191.4 205.8,192.8 200.9,193.3 C199.9,193.3 200,196.5 200.8,196.4" id="Shape" fill="#FFFFFF" sketch:type="MSShapeGroup"></path>
        </g>
    </g>
</svg>