<?xml version="1.0" encoding="UTF-8" standalone="no"?>
<svg width="134px" height="149px" viewBox="0 0 134 149" version="1.1" xmlns="http://www.w3.org/2000/svg" xmlns:xlink="http://www.w3.org/1999/xlink" xmlns:sketch="http://www.bohemiancoding.com/sketch/ns">
    <!-- Generator: Sketch 3.0.1 (7597) - http://www.bohemiancoding.com/sketch -->
    <title>nietzsche</title>
    <description>Created with Sketch.</description>
    <defs></defs>
    <g id="Page-1" stroke="none" stroke-width="1" fill="none" fill-rule="evenodd" sketch:type="MSPage">
        <g id="nietzsche" sketch:type="MSLayerGroup" transform="translate(-81.000000, -66.000000)" fill="#FFFFFF">
            <path d="M196.5,192.2 L196.5,191 C196.5,190.7 196.6,190.4 196.5,190.2 C196.5,189.9 196,189.6 195.7,189.9 L195,190.6 C194.2,191.5 193.4,192.3 192.7,193.2 C192.2,193.7 191.6,194.2 191.2,194.8 C190.2,196.3 189,197.6 187.8,198.9 C187.2,199.5 186.8,200.2 186.3,200.9 C186.1,201.1 186,201.4 185.8,201.5 C185.6,201.7 185,201.6 185,201.3 C184.9,200.9 184.9,200.4 184.9,200 C184.9,199.2 184.9,198.4 184.8,197.7 C184.6,195.7 184.3,193.7 184,191.7 C183.8,190.5 183.6,189.4 183.1,188.3 C182.2,186.1 181.9,183.9 182,181.6 C182.1,180 182.5,178.4 182.9,176.8 C183.1,176 183.4,175.2 183.7,174.4 C184.6,172.3 185.2,170.1 185.8,167.9 C186.6,165.1 186.8,162.2 186.8,159.3 C186.8,158 186.5,156.8 185.9,155.6 C185.6,154.9 185.3,154.3 185,153.6 C184.1,152.1 181.6,149.9 180.4,149 C179.4,148.2 178.3,148.2 177.1,148.8 C176,149.4 174.8,149.9 173.7,150.6 C173,151 172.3,151.5 171.7,152.1 C170.6,153.1 169.6,154.3 168.5,155.3 C168.1,155.7 167.6,156.1 167.1,156.5 C166.5,156.9 165.9,156.6 165.8,155.8 C165.8,155.4 165.8,155 165.9,154.6 C166.4,152.5 166.4,150.3 166.6,148.1 C166.8,146.4 166.4,144.8 165.5,143.3 C164.8,142.1 164.2,141 163.5,139.8 C162.2,137.7 161.9,135.4 162.5,133 C162.6,132.4 162.8,131.8 162.9,131.2 C163.2,130.1 163.3,128.9 163.2,127.7 C163.1,126.7 163.2,125.7 163.1,124.7 C163,123.8 162.9,122.8 162.7,121.9 C162.5,120.9 162.4,119.9 162.1,118.9 C161.6,116.8 161,114.8 160.4,112.8 C160.1,111.7 159.7,110.6 159.3,109.4 C159,108.7 158.8,107.9 158.4,107.2 C157.5,105.2 156.6,103.1 155.7,101.1 C155.6,100.9 155.6,100.8 155.5,100.6 C154.6,98.2 153,96.6 150.5,95.8 C148.1,95 140.3,95.1 138.9,95.1 C137.4,95.1 136,95.3 134.6,95.5 C132.4,95.9 130.1,96.3 127.9,96.8 C126.8,97 125.7,97.5 124.6,97.9 C123.9,98.1 123.2,98.4 122.5,98.4 C121.2,98.4 120.2,97.9 119.4,97 C118.9,96.4 118.6,95.7 118.3,95 C116.9,91.1 117,87.3 118.5,83.5 C120.1,79.3 122.8,76 126.6,73.5 C132.7,69.1 140.9,66.8 142.5,66.4 C144.4,66 145.2,66.5 145.4,68.5 C145.5,69.2 145.4,70 145.5,70.7 C145.6,72 146,72.5 147.3,72.7 C148,72.8 148.6,72.9 149.3,72.9 C154.8,73.7 164.4,77.4 168.5,80.6 C170.4,82.1 172.7,83 174.9,83.8 C175.8,84.1 176.9,84.2 177.9,84.4 C182.2,85.1 186.9,88.4 189.9,90.5 C197.8,95.9 204.5,108.4 205.4,109.7 C206.6,111.6 206.4,112.9 208.5,114.4 C210.2,115.6 210.9,117.3 211.3,119.2 C211.5,120.4 211.6,121.5 211.7,122.7 C211.8,124.2 212.1,125.7 212.5,127.1 C213.3,129.5 213.9,131.9 214.2,134.4 C214.3,135.1 214.2,135.7 214.2,136.4 C214.1,137.6 214,138.7 214,139.9 C214,143.1 213.8,146.4 213.3,149.6 C212.9,152.5 212.3,155.4 211,158.1 C210.7,158.7 210.5,159.3 210.2,160 C209.8,161.1 209.6,162.2 209.7,163.3 C210,166.6 209,169.6 207.2,172.3 C206,174 204.7,175.6 203,176.8 C202.2,177.3 201.8,178.1 201.6,179 C201.3,180.6 200.9,182.2 200.6,183.8 C200,186.6 198.8,189.1 197.2,191.4 C197.3,191.8 196.9,192.8 196.5,192.2" id="Shape" sketch:type="MSShapeGroup"></path>
            <path d="M115.3,214.5 C113.5,214.6 106.4,215.2 102.1,213.5 C101.3,213.2 100.6,212.8 99.9,212.4 C98.5,211.6 97,211.2 95.4,211.8 C94.4,212.2 91.9,214 88.4,211.5 C87.6,210.6 86.8,209.8 86.1,208.8 C85.4,208 83.3,205.9 81.9,200 C81.8,199.2 81.5,196.9 82,194.1 C83,188.9 85.5,185 85.8,184.5 C86.6,183.2 87.8,182.2 89,181.3 C93.7,177.5 97.9,179.1 99,179.4 C101,180 102.4,181.3 103.3,183.1 C103.7,183.8 104,184.6 104.4,185.4 C105,186.6 105.8,187.4 107.2,187.5 C107.9,187.6 109,187.8 109.6,188.2 C110.5,188.7 112.8,192.1 114.4,193.3 C116.2,194.7 118.9,195.4 120.1,196.4 C121.3,197.5 122.8,198.5 124.5,198 C125.2,197.8 125.9,197.7 126.6,197.5 C127,197.4 127.4,197.3 127.7,197.3 C128.5,197.3 129.1,197.9 129.2,198.6 C129.2,199 129.2,199.5 129,199.9 C128.6,201.1 128.2,202.3 127.8,203.6 C127.7,204 125.7,208.9 122.2,211.7 C120.5,212.9 118.6,213.7 116.6,214.2 C116.1,214.3 115.6,214.4 115.3,214.5" id="Shape" sketch:type="MSShapeGroup"></path>
            <path d="M95.3,138 C95.4,136.6 96.1,135.4 97.1,134.4 C97.7,133.8 98.4,133.8 99.1,134.3 C99.5,134.6 99.8,134.9 100.1,135.2 C100.8,136 101.7,136.5 102.8,136.3 C104.5,136 105.8,136.7 107.1,137.7 C108,138.5 109,139 110,139.6 C110.4,139.8 110.9,140 111.4,140 C112.3,140.1 113.3,140.1 114.2,140 C115.2,139.9 116.2,139.7 117.2,139.6 C117.9,139.5 118.5,139.4 119.2,139.5 C120.5,139.6 121.9,139.7 123.2,139.9 C123.9,140 124.6,140.3 125.1,140.8 C125.7,141.3 126.1,141.9 125.9,142.7 C125.7,143.8 126.3,144.4 127.2,144.8 C128.2,145.3 129.1,145.7 130.2,145.7 C132.2,145.6 133.9,146.5 135.6,147.3 C136.8,147.9 137.6,148.9 138.2,150.1 C138.4,150.4 138.5,150.8 138.5,151.2 C138.6,152.4 137.8,153 136.7,152.6 C136.5,152.5 136.4,152.5 136.2,152.4 C134,151 131.5,150.4 129.1,149.3 C128.3,148.9 127.4,148.8 126.5,148.6 C125.3,148.4 124.2,148.4 123.1,147.9 C122.1,147.5 121.1,146.8 120.2,146.3 C118.2,145.4 116.2,145.3 114,145 C112,144.7 107.3,144.1 104.4,145.4 C104,145.5 103.7,145.7 103.3,145.8 C102.1,146.2 101.1,146 100.3,145 C100.1,144.7 99.9,144.5 99.7,144.2 C99.2,143.1 98.3,142.3 97.4,141.6 C96.9,141.2 96.4,140.7 95.9,140.2 C95.5,139.8 95.3,139 95.3,138" id="Shape" sketch:type="MSShapeGroup"></path>
        </g>
    </g>
</svg>