<?xml version="1.0" encoding="UTF-8" standalone="no"?>
<svg width="110px" height="168px" viewBox="0 0 110 168" version="1.1" xmlns="http://www.w3.org/2000/svg" xmlns:xlink="http://www.w3.org/1999/xlink" xmlns:sketch="http://www.bohemiancoding.com/sketch/ns">
    <!-- Generator: Sketch 3.0.1 (7597) - http://www.bohemiancoding.com/sketch -->
    <title>teresa</title>
    <description>Created with Sketch.</description>
    <defs></defs>
    <g id="Page-1" stroke="none" stroke-width="1" fill="none" fill-rule="evenodd" sketch:type="MSPage">
        <g id="teresa" sketch:type="MSLayerGroup" transform="translate(-93.000000, -64.000000)" fill="#FFFFFF">
            <path d="M188.3,113.6 C186.3,112.8 184.3,112.2 182.2,111.9 C179.5,111.6 176.9,111.3 174.2,111.1 C169.8,110.8 165.3,110.6 160.8,110.5 C158.2,110.4 155.7,110.2 153.2,109.8 C149.4,109.1 145.6,108.5 142,107.3 C139.9,106.7 137.8,106.1 135.7,105.5 C135.2,105.4 134.7,105.2 134.2,105.5 C132.9,106.2 131.6,106.8 130.4,107.6 C128.1,109.1 127.9,110.5 129.6,112.6 C130.6,114 132,114.9 133.5,115.6 C135.6,116.6 137.9,117.2 140.2,117.7 C144.4,118.5 148.7,118.8 153,119 C157.7,119.2 162.4,119.4 167,119.7 C170.1,119.9 173.2,120.4 176.2,121.2 C180.9,122.5 185.7,123.6 190.4,124.8 C191,125 191.7,125 192.4,125.1 C192.7,124.6 193,124.2 193.2,123.7 C193.9,121.9 194.6,120.2 195.3,118.4 C195.8,116.9 195.4,116.3 194,115.7 C193.8,115.6 193.7,115.6 193.5,115.5 M143.2,102.2 C141.9,102.8 140.6,103.3 139.3,104.1 C139.6,104.3 139.8,104.4 140,104.4 C145,105.4 150,106.4 155.1,107.4 C156,107.6 156.9,107.6 157.8,107.7 C159,107.8 160.1,107.8 161.3,107.8 C166.7,107.8 172,108.2 177.3,108.6 C179.1,108.7 180.9,109 182.7,109.4 C185,110 187.4,110.4 189.7,110.8 C192.1,111.3 194.3,112.2 196.4,113.3 C196.6,113.4 196.9,113.6 197.1,113.7 C198.2,114.5 198.5,115.4 198,116.6 C197.9,117 197.7,117.3 197.5,117.6 C197,118.6 196.4,119.6 195.8,120.5 C195.3,121.2 195.2,122 195.2,122.9 C195.2,123.7 195.3,124.6 195.2,125.4 C195.1,126.4 195,127.4 194,128.2 C193.7,128.2 193.4,128.1 193.1,128.1 C189.9,127.3 186.8,126.1 183.7,125 C182.5,124.6 181.4,124.3 180.1,124.1 C175.6,123.5 171.2,122.9 166.7,122.3 C166.1,122.2 165.5,122.2 164.9,122.2 C160.2,122.1 155.4,122 150.7,121.8 C147.9,121.7 145.1,121.4 142.4,120.8 C139.7,120.2 133.6,117.5 131.3,115.8 C130.5,115.2 129.9,114.6 129.2,113.9 C128.9,113.6 128.7,113.4 128.3,113 C128.1,113.3 127.9,113.5 127.8,113.7 C126.9,115.7 126,117.6 125,119.6 C124.9,119.8 124.8,120 124.7,120.2 C124.4,120.9 124.7,121.5 125.4,121.9 C125.8,122.1 126.2,122.2 126.7,122.3 C127.7,122.6 128.8,122.8 129.8,123 C131.2,123.3 131.4,123.6 131.4,125 C131.4,126.9 131.3,128.8 131.3,130.7 C131.2,132.4 131.4,134 131.8,135.7 C132.8,139.5 134.1,143.2 135.7,146.7 C136.4,148.3 137.2,149.8 138.1,151.3 C138.9,152.6 138.7,153.8 137.8,154.8 C136.7,156.1 136.1,157.7 135.7,159.3 C134.7,163.2 133.7,167.1 133.1,171 C132.9,172.2 133.3,177.8 133.3,178.6 C133.1,182.6 132.9,186.5 132,190.4 C131.7,191.5 131.4,192.7 130.9,193.7 C130.6,194.4 130.2,194.9 129.7,195.5 C129.3,196 128.7,196.2 128.1,196.2 C127.3,196.2 126.9,196 126.8,195.2 C126.5,193.8 126.3,192.5 126,191.1 C125.3,187 124.8,182.9 124,178.9 C123.6,176.9 123.8,174.9 124.1,172.9 C124.5,170.1 125.1,167.4 126,164.8 C126.3,163.8 128.2,157.5 128.4,156.9 C128.8,155.7 128.7,154.6 127.9,153.6 C127.1,152.5 126.3,151.5 125.4,150.5 C124.1,149.1 122.6,147.8 121.2,146.4 C119.5,144.7 117.7,143.1 116,141.4 C115,140.4 114.1,139.3 113.3,138.3 C112,136.6 107.5,129.4 106.3,127.6 C106,127.2 105.7,126.8 105.4,126.4 C103.9,124 102,122 99.6,120.5 C98,119.5 96.5,118.3 94.9,117.3 C93.8,116.6 93.5,115.6 93.8,114.4 C94,113.5 94.4,112.6 94.9,111.8 C95.4,111.1 100.1,104.1 102.7,101.8 C105.9,98.9 108.7,95.6 111.3,92.3 C114.3,88.5 117.4,84.9 120.8,81.5 C122,80.3 123.3,79.1 124.6,77.9 C126.6,76.1 128.7,74.6 131,73.4 C133.8,71.9 145.5,66.1 157.5,64.7 C161.5,64.3 165.4,64.5 169.3,65 C171.7,65.3 174,65.9 176.3,66.7 C179.2,67.8 181.8,69.5 184.1,71.8 C185.8,73.5 187.4,75.4 188.9,77.4 C191.2,80.4 193.8,82.9 197.3,88.2 C198.3,89.9 199.4,91.6 199.7,93.6 C200.3,96.9 200.9,100.2 201,103.5 C201,104.4 201,105.4 200.9,106.3 C200.9,106.7 200.6,107 200.5,107.5 C200.1,107.3 199.8,107.3 199.5,107.1 C197.7,105.6 195.5,104.7 193.3,104 C192.4,103.7 191.6,103.4 190.8,103.1 C188.9,102.3 186.8,102 184.8,101.8 C180.1,101.4 175.5,100.9 170.8,100.6 C166.1,100.3 161.5,100.1 156.8,99.8 C154.6,99.7 152.3,99.6 150.1,99.6 C149.5,99.6 148.9,99.6 148.3,99.7 C148.1,99.7 147.8,99.9 147.6,100 C147.6,100.6 148,100.7 148.4,100.8 C149.5,100.9 150.6,101.1 151.7,101.2 C152.9,101.3 154,101.5 155.1,101.8 C156.4,102.2 157.7,102.1 159.1,102.1 C160.8,102.1 162.4,102.1 164.1,102.2 C165.2,102.3 166.2,102.5 167.2,102.6 C169.9,102.8 172.5,102.9 175.2,103.1 C175.9,103.1 176.5,103.3 177.2,103.4 C180.1,104 183,104.3 186,104.5 C188.2,104.7 190.3,104.9 192.4,105.5 C193.3,105.8 194.2,106.1 195,106.6 C196.3,107.3 197.5,108 198.8,108.8 C199.1,109 199.4,109.3 199.7,109.5 C200.2,110 200.3,110.7 200.2,111.4 C200,112.2 199.5,112.5 198.7,112.4 C198.3,112.3 197.8,112.2 197.5,112 C197,111.7 196.4,111.4 196,111 C194.2,109.4 192,108.6 189.7,108 C187.3,107.4 184.8,107 182.3,106.7 C176.2,106 170.1,105.7 164,105.3 C159.6,105 155.2,104.7 150.9,104 C148,103.7 145.6,103.1 143.2,102.2" id="Shape" sketch:type="MSShapeGroup"></path>
            <path d="M189.7,139.9 C189.4,140 189.2,140.1 188.9,140.3 C187.9,141 187,141.9 186.3,142.9 C185.2,144.5 184.2,146.2 183.3,147.9 C182,150.4 180.8,153 179.5,155.5 C179,156.5 178.4,157.4 177.8,158.4 C177.6,158.7 177.4,158.9 177.1,159.1 C177,159.2 176.8,159.2 176.7,159.1 C176.6,159 176.5,158.9 176.4,158.7 C176.4,158.5 176.4,158.3 176.5,158 C176.9,156.3 177.4,154.7 177.8,153 C178,152.4 178.3,151.9 178.7,151.5 C179.8,150.2 180.9,149 182,147.7 C183.4,145.9 184.8,144.1 186.2,142.3 C186.8,141.4 187.3,140.4 187.7,139.3 C187.9,138.8 187.9,138.1 187.9,137.5 C187.9,136.9 187.4,136.5 186.9,136.3 C186.4,136.1 186,136.4 185.7,136.8 C185,137.6 184.3,138.4 183.7,139.3 C182.8,140.7 181.9,142.1 181.1,143.6 C180.3,145 179.4,146.2 178.1,147.1 C177.4,147.6 176.7,148.2 176,148.8 C175.7,149.1 175.3,149.3 175,149.6 C174.9,149 175.3,148.8 175.5,148.5 C176.9,146.6 178.4,144.7 179.9,142.8 C180.5,142 181,141 181.5,140.1 C181.7,139.7 181.8,139.2 181.9,138.7 C182,138.3 181.7,137.9 181.3,137.8 C180.9,137.6 180.5,137.6 180.2,137.9 C180,138.1 179.9,138.2 179.7,138.4 C177.4,141.1 175.1,143.8 172.9,146.6 C170.3,149.9 168.2,153.5 166.7,157.4 C165,162.2 164.7,167 166.4,171.8 C166.7,172.7 166.9,173.7 167.1,174.7 C167.3,175.9 167.4,177 167.6,178.2 C167.9,179.8 167.9,181.4 168.3,182.7 C169.5,183.6 170.6,184.3 171.6,185.1 C173.3,186.5 175,188 176.7,189.4 C177.6,190.2 178.7,190.9 179.7,191.6 C180.2,191.9 180.7,192.1 181.2,192.2 C181.9,192.4 182.5,192.1 182.9,191.5 C183.2,191 183.4,190.5 183.6,190 C183.9,189.4 184,188.7 184.3,188.1 C186.3,184.1 187.7,179.8 189.1,175.5 C189.5,174.2 189.7,172.9 189.7,171.6 C189.6,169.8 189.7,168 189.8,166.3 C189.9,164.5 190.2,162.6 190.4,160.8 C190.7,157.6 191.2,154.4 192.3,151.3 C192.9,149.7 193.3,148 193.9,146.4 C194.2,145.5 193.9,144.7 193.3,143.9 C193,144.3 192.7,144.6 192.5,144.9 C191.6,146.3 190.7,147.7 189.8,149.2 C187.6,152.6 185.6,156.2 184.3,160 C184.2,160.2 184.1,160.4 184,160.6 C183.9,160.7 183.7,160.7 183.6,160.7 C183.5,160.7 183.3,160.5 183.3,160.3 C183.3,160 183.3,159.7 183.4,159.5 C183.7,158.3 184.1,157 184.4,155.8 C184.7,154.8 185.1,153.9 185.7,153.1 C186.5,151.9 187.4,150.8 188.2,149.5 C189,148.3 189.7,147 190.4,145.8 C190.8,145 191.1,144.1 191.1,143.2 C191.1,141.9 190.8,140.7 189.7,139.9 M167.5,152 C167.8,152.1 168.4,152 168.6,151.5 C169,150.8 169.5,150.1 170,149.4 C171.6,147 173.1,144.6 174.8,142.3 C175.8,140.9 176.9,139.6 178.1,138.3 C178.6,137.7 179.3,137.1 180,136.7 C181.3,135.8 182.5,136.1 183,137.4 C183.1,137.6 183.2,137.8 183.3,138 C183.3,138 183.4,138.1 183.5,138.2 C183.7,138 183.9,137.9 184.1,137.7 C184.7,136.9 185.2,136.2 185.8,135.4 C186.5,134.5 187.6,134.5 188.3,135.4 C188.6,135.8 188.8,136.3 189,136.7 C189.2,137.2 189.5,137.6 190.1,137.6 C190.2,137.6 190.3,137.7 190.4,137.7 C191.9,138.3 192.2,138.9 191.8,140.6 C191.7,141 191.7,141.3 191.6,141.7 C192.1,142.2 192.6,142 193.1,142 C194,142.1 194.5,142.4 194.6,143.3 C194.7,143.8 194.7,144.3 194.7,144.8 C194.6,146.2 194.8,147.4 195.6,148.6 C197.5,151.5 198,154.8 198.1,158.2 C198.1,161.1 197.8,163.9 197.1,166.6 C196.6,168.7 196.3,170.8 196.3,172.9 C196.4,176.8 195.8,180.7 194.4,184.4 C194.1,185.2 193.9,186.1 193.6,187 C194,187.2 194.3,187.4 194.7,187.5 C195.3,187.7 196,187.8 196.6,188 C197.4,188.2 198.1,188.6 198.8,189.2 C199.7,190 200.3,190.9 200.2,192.2 C200.1,194.8 200.1,197.4 200,200.1 C199.9,202.5 200.1,204.8 200.7,207 C201.2,209.2 201.7,211.3 202.1,213.5 C202.5,215.9 202.8,218.2 202.3,220.6 C201.8,223.2 200.6,225.2 198.1,226.2 C196.2,227 194.4,226.9 192.7,225.7 C191.9,225.2 191.2,224.5 190.5,224 C189.5,223.2 189.2,223.1 187.7,222.7 C186.7,223.6 185.5,224.5 184.5,225.5 C184.1,225.8 183.9,226.3 183.7,226.8 C183.4,227.5 183.2,228.2 183,228.8 C182.8,229.4 182.5,230.1 182.2,230.6 C181.8,231.3 181.3,231.7 180.5,231.7 C179,231.8 177.4,232 175.8,232 C175.7,231.6 175.7,231.2 175.7,230.9 C175.7,228.6 175.7,226.2 175.8,223.9 C175.8,223 175.7,222.1 175.3,221.3 C174.7,220.2 174.1,219 173.3,218 C172.4,216.7 171.4,215.5 170.3,214.4 C168.5,212.4 167.1,210.3 165.9,207.9 C165,206.2 164.2,204.4 163.3,202.6 C162.3,200.6 161.3,198.6 160,196.8 C159.5,196.1 158.9,195.5 158.2,195.1 C155.9,193.7 153.6,192.2 151.3,190.8 C150.9,190.6 150.6,190.3 150.2,190 C150,189.8 150,189.3 150.3,189.1 C150.8,188.9 151.3,188.6 151.8,188.4 C155.9,186.7 159.9,185.1 164,183.4 C164.6,183.2 165.1,182.9 165.7,182.7 C165.8,180.3 165.9,178 166,175.8 C166,174.9 165.8,174 165.7,173.2 C165.1,169.2 164.5,165.2 163.8,161.2 C163.4,158.7 163.4,158.7 164.9,156.8 C165.2,156.4 165.4,156.1 165.6,155.8 C165.4,154.8 165.1,153.8 165,152.9 C164.9,152.5 164.9,152 165.4,151.7 C165.4,151.7 166,151.4 166.7,151.5 C167.1,151.6 167.2,151.9 167.5,152" id="Shape" sketch:type="MSShapeGroup"></path>
            <path d="M169.4,158.3 C169.4,157.7 169.3,157.5 169.4,157.3 C169.9,155.9 172,152.7 174.2,150.4 C174.1,150.8 174.1,151 174,151.1 C172.7,153.2 171.4,155.4 170.1,157.5 C170,157.7 169.8,157.8 169.4,158.3" id="Shape" sketch:type="MSShapeGroup"></path>
        </g>
    </g>
</svg>