<?xml version="1.0" encoding="utf-8"?>
<!-- Generator: Adobe Illustrator 16.0.0, SVG Export Plug-In . SVG Version: 6.00 Build 0)  -->
<!DOCTYPE svg PUBLIC "-//W3C//DTD SVG 1.1//EN" "http://www.w3.org/Graphics/SVG/1.1/DTD/svg11.dtd">
<svg version="1.1" id="Ebene_1" xmlns="http://www.w3.org/2000/svg" xmlns:xlink="http://www.w3.org/1999/xlink" x="0px" y="0px"
	 width="103.424px" height="67.808px" viewBox="0 0 103.424 67.808" enable-background="new 0 0 103.424 67.808"
	 xml:space="preserve">
<text transform="matrix(0.5225 -0.8526 0.8526 0.5225 175.3384 62.8813)"><tspan x="0" y="0" fill="#009FE3" font-family="'Futura-CondensedMedium'" font-size="37.8934" letter-spacing="5">XX</tspan><tspan x="39.748" y="-0.001" fill="#009FE3" font-family="'Futura-CondensedMedium'" font-size="37.8934" letter-spacing="5">V</tspan><tspan x="59.439" y="0" fill="#009FE3" font-family="'Futura-CondensedMedium'" font-size="37.8934">I</tspan></text>
<g>
	<defs>
		<rect id="SVGID_1_" x="107.37" y="-58.179" width="200.42" height="187.18"/>
	</defs>
	<clipPath id="SVGID_2_">
		<use xlink:href="#SVGID_1_"  overflow="visible"/>
	</clipPath>
	<path clip-path="url(#SVGID_2_)" fill="#009FE3" d="M241.216-43.355l-6.322,10.357c0.197,0.103,0.4,0.19,0.597,0.294
		C261.756-18.956,278.07,7.984,278.07,37.6c0,43.729-35.575,79.304-79.303,79.304c-16.741,0-32.738-5.153-46.276-14.898
		l-6.312,10.341C161.626,123.236,179.781,129,198.767,129c50.397,0,91.4-41.003,91.4-91.4
		C290.167,3.511,271.412-27.495,241.216-43.355"/>
	<path clip-path="url(#SVGID_2_)" fill="#009FE3" d="M122.906,88.559l7.068-11.58c-6.854-11.952-10.508-25.493-10.508-39.378
		c0-43.728,35.574-79.302,79.301-79.302c1.191,0,2.383,0.071,3.573,0.123l7.078-11.596c-1.401-0.161-2.81-0.303-4.225-0.401
		c-2.124-0.147-4.286-0.223-6.427-0.223c-50.397,0-91.397,41.001-91.397,91.398c0,17.048,4.728,33.683,13.668,48.102
		C121.64,86.672,122.272,87.616,122.906,88.559"/>
</g>
<text transform="matrix(1 0 0 1 225.2485 -6.3086)" fill="#FFFFFF" font-family="'Futura-Medium'" font-size="27.054">H</text>
<text transform="matrix(1 0 0 1 211.3442 16.0645)"><tspan x="0" y="0" fill="#FFFFFF" font-family="'Futura-Medium'" font-size="27.054" letter-spacing="-2">E</tspan><tspan x="13.133" y="0" fill="#FFFFFF" font-family="'Futura-Medium'" font-size="27.054" letter-spacing="-2">I</tspan><tspan x="18.975" y="0" fill="#FFFFFF" font-family="'Futura-Medium'" font-size="27.054" letter-spacing="-2">D</tspan><tspan x="36.453" y="0" fill="#FFFFFF" font-family="'Futura-Medium'" font-size="27.054">E</tspan></text>
<text transform="matrix(1 0 0 1 197.5728 38.438)"><tspan x="0" y="0" fill="#FFFFFF" font-family="'Futura-Medium'" font-size="27.054" letter-spacing="-1">LBE</tspan><tspan x="37.607" y="0" fill="#FFFFFF" font-family="'Futura-Medium'" font-size="27.054" letter-spacing="-2">R</tspan><tspan x="51.543" y="0" fill="#FFFFFF" font-family="'Futura-Medium'" font-size="27.054">G</tspan></text>
<text transform="matrix(1 0 0 1 183.6665 60.813)"><tspan x="0" y="0" fill="#FFFFFF" font-family="'Futura-Medium'" font-size="27.054" letter-spacing="-2">ER</tspan><tspan x="27.258" y="0" fill="#FFFFFF" font-family="'Futura-Medium'" font-size="27.054" letter-spacing="-2">     </tspan><tspan x="58.314" y="0" fill="#FFFFFF" font-family="'Futura-Medium'" font-size="27.054" letter-spacing="-2">S</tspan><tspan x="71.76" y="0" fill="#FFFFFF" font-family="'Futura-Medium'" font-size="27.054">Y</tspan></text>
<text transform="matrix(1 0 0 1 169.897 83.186)"><tspan x="0" y="0" fill="#FFFFFF" font-family="'Futura-Medium'" font-size="27.054">M</tspan><tspan x="25.199" y="0" fill="#FFFFFF" font-family="'Futura-Medium'" font-size="27.054">P</tspan></text>
<text transform="matrix(1 0 0 1 208.8813 83.186)" fill="#FFFFFF" font-family="'Futura-Medium'" font-size="27.054">O</text>
<text transform="matrix(1 0 0 1 232.2563 83.186)" fill="#FFFFFF" font-family="'Futura-Medium'" font-size="27.054">S</text>
<text transform="matrix(1 0 0 1 247.2173 83.186)" fill="#FFFFFF" font-family="'Futura-Medium'" font-size="27.054">I</text>
<text transform="matrix(1 0 0 1 155.9907 105.5591)"><tspan x="0" y="0" fill="#FFFFFF" font-family="'Futura-Medium'" font-size="27.054" letter-spacing="-2">U</tspan><tspan x="17.85" y="0" fill="#FFFFFF" font-family="'Futura-Medium'" font-size="27.054">M</tspan></text>
<g>
	<path fill="#009FE3" d="M26.658,64.072c-0.629,0-1.119-0.096-1.393-0.325c-1.217-1.015-1.447-2.284-0.681-3.633
		c-0.191,0.072-0.38,0.145-0.567,0.214c-0.736,0.461-7.954,4.747-10.471,1.728c-0.698-0.837-0.945-1.653-0.737-2.424
		c0.134-0.494,0.444-0.915,0.844-1.275c-1.98,0.395-4.313,0.538-4.981-0.735c-0.584-1.117-0.704-2.15-0.354-3.073
		c0.554-1.463,2.091-2.062,2.156-2.088l1.501-0.653c-1.338,0.037-2.735-0.233-3.238-1.363c-0.814-1.832,0.043-3.396,2.549-4.649
		c6.685-3.342,16.519-8.239,16.519-8.239c0.67-0.421,17.388-10.852,21.092-12.819c1.146-0.609,1.791-1.275,1.975-2.036
		c0.193-0.806-0.124-1.787-0.973-2.999c-0.875-1.248-2.991-2.926-5.041-4.548c-1.663-1.318-3.235-2.563-4.135-3.57
		c-0.053-0.059-4.993-6.429-3.425-8.842c0.348-0.536,0.853-0.871,1.5-0.997c2.142-0.414,5.208,1.71,5.339,1.802
		c6.583,4.085,16.692,10.28,17.466,10.544c1.629,0.437,4.13,4.341,4.637,5.154c0.96,0.55,7.734,4.452,9.088,5.807
		c0.787,0.787,9.455,1.023,17.378,0.796l0.027,0.933c-2.76,0.078-16.598,0.397-18.064-1.069c-1.339-1.339-8.919-5.672-8.995-5.715
		l-0.104-0.059l-0.062-0.102c-1.061-1.726-3.124-4.569-4.153-4.845c-0.922-0.248-14.933-8.926-17.731-10.664
		c-0.816-0.569-3.205-1.95-4.647-1.664c-0.395,0.077-0.687,0.269-0.896,0.589c-0.995,1.532,2.521,6.8,3.339,7.713
		c0.846,0.946,2.389,2.167,4.019,3.459c2.1,1.665,4.273,3.385,5.225,4.746c1.011,1.443,1.375,2.669,1.117,3.75
		c-0.25,1.036-1.049,1.9-2.445,2.642c-3.674,1.952-20.901,12.7-21.075,12.81c-0.039,0.021-9.871,4.917-16.555,8.26
		c-2.67,1.335-2.485,2.6-2.114,3.436c0.566,1.275,3.804,0.729,4.893,0.438l20.343-8.646l0.368,0.856L10.827,53.323
		c-0.031,0.013-1.237,0.492-1.639,1.562c-0.249,0.661-0.143,1.436,0.311,2.303c0.534,1.019,4.294,0.329,6.668-0.459l22.038-9.392
		l0.374,0.855c-0.811,0.359-19.849,8.822-21.249,9.339l-0.22,0.08c-1.004,0.364-3.091,1.122-3.399,2.263
		c-0.125,0.461,0.061,0.995,0.553,1.584c1.7,2.041,7.324-0.728,9.347-1.965c13.348-5.021,17.446-6.552,18.792-6.848
		c0.02-0.01,0.037-0.019,0.047-0.025l0.009,0.013c0.546-0.113,0.599-0.003,0.676,0.148l0.191,0.371L42.962,53.4
		c-0.263,0.175-1.459,0.604-4.813,1.786c-4.108,1.448-11.756,4.143-12.378,4.843c-1.259,1.573-0.551,2.466,0.092,3.002
		c0.734,0.615,6.146-0.774,10.737-2.413c0.171-0.041,11.295-2.417,12.869-2.812c0.164-0.041,0.742-0.118,2.032-0.289
		c3.543-0.469,10.915-1.445,14.504-2.504c1.764-0.52,3.467-1.423,5.269-2.377c2.419-1.281,5.161-2.733,8.523-3.462
		c2.7-0.583,12.278-0.705,12.685-0.709l0.012,0.933c-0.099,0.001-9.891,0.125-12.499,0.689c-3.237,0.699-5.803,2.059-8.283,3.373
		c-1.846,0.978-3.589,1.9-5.441,2.447c-3.658,1.079-11.08,2.062-14.646,2.534c-0.966,0.127-1.8,0.238-1.928,0.27
		c-1.589,0.398-12.382,2.703-12.841,2.802C34.981,62.185,29.445,64.072,26.658,64.072z"/>
	<path fill="#009FE3" d="M49.115,25.147c2.811-1.494,2.798-3.381,1.166-5.713c-1.632-2.332-7.229-5.946-9.21-8.162
		c-0.492-0.549-4.653-6.322-3.381-8.278c0,0,4.74,1.71,6.762,2.954c2.021,1.243,3.265,6.062,4.197,6.062s9.016,4.508,9.794,5.13
		c0.775,0.622,2.331,2.953,2.02,3.575c-0.31,0.622-2.175,1.399-1.708,2.332c0.466,0.933,10.258,7.422,10.569,8.394
		c0.238,0.741,0.777,5.597,0.466,6.062c-0.311,0.467-9.751,1.079-13.367,0.777c-3.73-0.311-7.307-2.797-10.26-3.265
		c-2.955-0.466-8.449,4.523-8.24,2.644c0.155-1.398,4.197-5.908,4.197-6.063c0-0.156,1.69-1.496,1.69-1.496s3.689-1.466,3.265-2.682
		C46.667,26.255,49.115,25.147,49.115,25.147z"/>
	<path fill="#009FE3" d="M35.008,42.286c0.291,0.408-20.404,8.667-20.404,8.667s-4.126,1.395-4.983-0.534
		c0,0,0.222-2.048,1.137-1.691c2.39,0.934,6.704-0.087,6.704-0.087l3.983-1.497l3.731-1.865c0,0,7.479-2.7,8.084-3.265
		c0.583-0.543,0.758-2.7,1.049-2.467C34.862,39.989,34.717,41.877,35.008,42.286z"/>
	<path fill="#009FE3" d="M38.389,47.766L16.313,57.17c0,0-6.26,2.08-7.229,0.233c0,0,0.856-2.021,1.633-1.71s4.664-0.466,5.13-0.311
		c0.466,0.154,6.918-1.729,8.171-2.283c1.253-0.555,1.933-1.246,3.964-2.099c1.303-0.548,2.878-0.918,4.285-1.487
		c2.649-1.072,4.902-2.263,5.034-2.525c0.31-0.622-0.933-2.138-0.37-1.963C37.495,45.201,38.389,47.766,38.389,47.766z"/>
	<path fill="#009FE3" d="M43.665,53.303c-0.011,0.12-1.071,0.061-2.303,0.496c-5.094,1.798-17.8,5.975-17.8,5.975
		s-7.617,4.664-9.949,1.866c0,0,1.534-2.041,2.157-1.574c0.621,0.466,6.781-1.068,6.781-1.068s3.688-1.198,6.364-2.255
		c1.169-0.462,2.244-1.18,2.565-1.282c1.195-0.379,2.119-0.424,3.876-0.933c2.736-0.794,5.815-1.898,6.004-2.04
		c0.31-0.233-1.315-2.813-0.933-2.663c0.836,0.331,1.233,1.374,1.72,2.021C42.849,52.779,43.723,52.692,43.665,53.303z"/>
	<path fill="#009FE3" d="M92.487,48.931c0,0-9.906,0.119-12.592,0.7c-5.753,1.244-9.517,4.578-13.758,5.829
		c-4.741,1.399-15.934,2.643-16.556,2.798c-1.599,0.401-12.825,2.799-12.825,2.799s-9.793,3.497-11.192,2.331
		c0,0-0.079-2.253,0.854-1.942c0.933,0.311,6.84-1.555,7.307-1.555c0.187,0,2.542-0.192,5.217-0.642
		c1.073-0.18,2.119-0.806,3.207-0.991c0.921-0.157,1.836-0.06,2.62-0.193c1.723-0.295,2.947-0.506,2.947-0.506
		s1.556-0.622,1.71-0.466c0.155,0.155,0.505-2.235,1.088-2.488c0.583-0.252,5.188-0.057,6.062-0.154
		c0.875-0.098,3.11-1.244,3.11-1.244s3.73-3.887,4.507-4.664c0.777-0.776,5.675-6.12,7.307-6.218c1.633-0.097,6.684,3.42,6.684,3.42
		l5.753,1.088h8.083L92.487,48.931z"/>
	<path fill="#009FE3" d="M92.796,33.931l-11.502,0.311c0,0-0.778-2.021-1.711-1.865s-1.399-0.466-1.865,0.466
		c-0.467,0.933,0.621,4.353,0.621,4.353s0.935,4.354,2.177,4.197c1.244-0.155,2.953-3.73,3.886-3.73s8.239,0.311,8.239,0.311"/>
</g>
</svg>
