<?xml version="1.0" encoding="utf-8"?>
<!-- Generator: Adobe Illustrator 16.0.0, SVG Export Plug-In . SVG Version: 6.00 Build 0)  -->
<!DOCTYPE svg PUBLIC "-//W3C//DTD SVG 1.1//EN" "http://www.w3.org/Graphics/SVG/1.1/DTD/svg11.dtd">
<svg version="1.1" id="Ebene_1" xmlns="http://www.w3.org/2000/svg" xmlns:xlink="http://www.w3.org/1999/xlink" x="0px" y="0px"
	 width="103.424px" height="67.808px" viewBox="0 0 103.424 67.808" enable-background="new 0 0 103.424 67.808"
	 xml:space="preserve">
<g>
	<path fill="#009FE3" d="M89.151,58.21c-1.317,0-2.568-0.591-2.998-0.912l-5.762-4.593l0.623-0.782l5.75,4.584
		c0.357,0.268,1.713,0.854,2.866,0.667c0.579-0.094,1.015-0.359,1.329-0.812c0.533-0.767,0.719-1.675,0.521-2.556
		c-0.302-1.345-1.464-2.633-3.361-3.726c-0.441-0.255-2.146-2.004-4.694-4.645c-1.229-1.272-2.621-2.715-2.839-2.877
		c-0.5-0.334-7.265-5.893-8.034-6.525c-1.421-1.418-4.663-4.736-4.84-5.622l0.978-0.208c0.158,0.502,2.477,3.033,4.533,5.09
		c2.971,2.44,7.572,6.203,7.924,6.438c0.234,0.156,1.051,0.993,2.998,3.01c1.629,1.688,4.09,4.236,4.476,4.473
		c2.71,1.561,3.582,3.24,3.836,4.374c0.259,1.157,0.019,2.345-0.677,3.345c-0.471,0.678-1.141,1.09-1.99,1.227
		C89.577,58.196,89.364,58.21,89.151,58.21z"/>
	<path fill="#009FE3" d="M89.436,48.91c-1.117,0-2.232-0.259-2.864-0.56l0.43-0.903c1.128,0.536,3.555,0.739,4.471-0.093
		c0.159-0.145,0.644-0.586,0.178-1.867c-1.271-3.497-7.782-8.898-7.849-8.953c-0.012-0.008-2.285-1.78-5.18-4.344
		c-0.712-0.631-2.225-2.065-3.824-3.584c-2.34-2.22-5.545-5.26-5.99-5.513c-0.262-0.131-0.701-0.312-1.227-0.529
		c-3.227-1.335-5.855-2.563-5.352-4.074c0.363-1.09,1.736-1.395,3.326-1.748c1.17-0.259,2.496-0.553,3.557-1.189
		c2.104-1.263,5.625-3.375,5.762-4.467c0.006-0.052,0.023-0.191-0.188-0.378c-0.668-0.593-2.714-0.899-4.696-0.408
		c-1.806,0.447-8.124,0.296-11.989,0.013c-1.846-0.131-4.545,1.601-6.938,3.131c-1.861,1.19-3.468,2.218-4.685,2.446
		c-4.022,0.754-34.745-1.801-36.05-1.91l0.083-0.996c0.318,0.026,31.894,2.649,35.783,1.924c1.026-0.192,2.631-1.219,4.33-2.306
		c2.523-1.614,5.391-3.442,7.549-3.285C62.35,9.628,68.254,9.7,69.75,9.329c2.179-0.54,4.587-0.27,5.601,0.631
		c0.5,0.444,0.557,0.925,0.516,1.25c-0.182,1.459-2.814,3.146-6.238,5.2c-1.201,0.721-2.611,1.033-3.855,1.309
		c-1.24,0.275-2.41,0.534-2.596,1.087c-0.113,0.342,0.625,1.111,4.787,2.833c0.553,0.229,1.016,0.421,1.297,0.562
		c0.436,0.218,2.191,1.853,6.225,5.679c1.595,1.513,3.101,2.941,3.8,3.561c2.87,2.542,5.12,4.295,5.142,4.313
		c0.288,0.237,6.799,5.639,8.163,9.391c0.575,1.58,0.075,2.476-0.444,2.949C91.485,48.693,90.459,48.909,89.436,48.91z"/>
	<path fill="#009FE3" d="M81.761,60.691c-0.622,0-1.342-0.073-2.177-0.239l0.195-0.98c2.414,0.482,4.014,0.179,4.621-0.879
		c0.551-0.961,0.158-2.27-0.071-2.529c-0.224-0.252-2.539-2.197-3.946-3.363c-3.031-2.599-8.025-6.816-8.547-7.094
		c-0.461-0.151-7.053-5.115-10.936-8.059l0.604-0.797c3.859,2.925,10.184,7.667,10.726,7.938c0.454,0.15,5.038,4.025,8.798,7.246
		c0.611,0.508,3.709,3.082,4.049,3.465c0.477,0.536,0.975,2.324,0.191,3.691C84.816,59.877,83.844,60.691,81.761,60.691z"/>
	<path fill="#009FE3" d="M76.036,61.481c-1.188,0-14.78-5.664-15.557-6.053c-1.004-0.502-8.861-5.11-9.196-5.307l-0.106-0.084
		c0.026,0.035-0.472-0.199-2.646-0.223c-3.771-0.043-10.292-3.693-12.153-5.287c-0.681-0.582-1.243-1.393-1.839-2.25
		c-0.995-1.432-2.024-2.913-3.599-3.223c-3.695-0.727-20.547-0.08-20.717-0.074l-0.039-0.999c0.698-0.026,17.138-0.657,20.95,0.092
		c1.972,0.388,3.17,2.112,4.227,3.634c0.558,0.803,1.085,1.562,1.668,2.061c1.727,1.479,8.027,5.008,11.514,5.047
		c1.766,0.02,2.863,0.174,3.27,0.457c0.475,0.279,8.167,4.788,9.115,5.262c1.185,0.593,14.084,5.867,15.12,5.948
		c0.482-0.001,1.68-0.388,2.696-0.765c-1.353-0.802-2.726-1.535-3.051-1.569c-0.921,0.001-8.832-4.415-9.78-5.093
		c-1.158-0.828-9.01-6.756-9.343-7.008l0.602-0.798c0.082,0.062,8.176,6.171,9.323,6.992c1.198,0.856,8.456,4.77,9.247,4.909h0.001
		c0.669,0,3.04,1.402,4.392,2.238l0.832,0.516l-0.905,0.372C79.76,60.4,77.104,61.481,76.036,61.481z"/>
	<path fill="#009FE3" d="M86.787,47.899c-0.722-0.416-5.417-5.416-5.917-5.75s-8-6.5-8-6.5s-5.021-4.354-5.188-5.188
		c0,0-0.73-1.647-0.313-1.647s1.833,0.25,1.917,0.5c0.083,0.25,1.166,2.25,1.166,2.25l2.834,3.25c0,0,3.416,2.667,3.916,3
		c0.5,0.334,2.667,2.168,3.167,2.668s3.5,2.998,3.75,3.166c0.25,0.166,1.354,1.611,1.938,1.611s3.938-2.891,2.125-0.953
		c-2.067,2.209,1.391,4.016,1.02,3.926C88.307,48.014,86.787,47.899,86.787,47.899z"/>
	<path fill="#009FE3" d="M62.703,18.648c0.804-1.361,4.167-1.167,6.667-2.667s6.84-4.419,5.854-5.333
		c-1.146-1.062-0.718,0.304-1.146,0.333c-4.05,0.279-4.918,2.146-5.875,2.646c-0.959,0.5-1.605,0.417-2.584,0.771
		s-2.812,1.938-3.479,2.875C61.797,17.756,62.016,19.81,62.703,18.648z"/>
	<path fill="#009FE3" d="M84.704,55.731c-0.332-0.373-4.001-3.416-4.001-3.416s-8.167-7-8.667-7.166
		c-0.5-0.168-11.135-7.531-11.135-7.531s-0.199-0.387-0.282-0.637s1.5-1,1.75-0.75c0.25,0.25,0.833,1.833,0.833,1.833l5.75,4.168
		l3.75,2.582l3.334,1.918l2.083,2.166l4.25,3.166c0,0,1.944,1.588,3.038,1.76s4.775-3.596,1.025,0.686
		c-0.541,0.617,0.422,1.156,2.104,2.805C89.809,58.563,84.704,55.731,84.704,55.731z"/>
	<path fill="#009FE3" d="M79.87,59.815c0,0-3.5-2.166-4.167-2.166s-8.333-4.166-9.5-5s-9.646-6.625-9.646-6.625
		s-1.25,0.082-1.25-0.502c0-0.582,0.896-1.375,1.312-1.375c0.416,0,0.332-0.885,0.916-0.582s0.75,1.832,0.75,1.832
		s7.416,5.752,8,5.918s6.5,3.832,6.5,3.832l7.084,3.084c0,0,1.833-0.373,2,0.127l1,1.322l-0.417,0.467L79.87,59.815z"/>
	<path fill="#009FE3" d="M10.203,38.481c0,0,17.036-0.664,20.833,0.084c2.75,0.541,3.888,4.061,5.667,5.584
		c1.75,1.498,8.167,5.125,11.833,5.166c2.671,0.029,3,0.375,3,0.375s8.167,4.791,9.167,5.291s14.333,6,15.333,6
		s3.293-1.375,3.293-1.375s-4.035-1.975-4.303-1.801c-0.771,0.5-4.281,0.406-5.031,0.219c-0.242-0.061-7.626-2.875-8.209-3.375
		s-8.75-5.584-9.166-5.75c-0.417-0.166-1.5-1.418-1.667-1.75c-0.167-0.334-1.167-1.832-1.833-1.666s-4-0.668-5.167-1.668
		s-4.5-4.582-6.667-5.498c-2.167-0.918-4.167-6.334-6.083-6.917s-19.25-1.5-20.917-1.25S10.203,38.481,10.203,38.481z"/>
</g>
<text transform="matrix(0.5225 -0.8526 0.8526 0.5225 175.3384 62.8813)"><tspan x="0" y="0" fill="#009FE3" font-family="'Futura-CondensedMedium'" font-size="37.8934" letter-spacing="5">XX</tspan><tspan x="39.748" y="-0.001" fill="#009FE3" font-family="'Futura-CondensedMedium'" font-size="37.8934" letter-spacing="5">V</tspan><tspan x="59.439" y="0" fill="#009FE3" font-family="'Futura-CondensedMedium'" font-size="37.8934">I</tspan></text>
<g>
	<defs>
		<rect id="SVGID_1_" x="107.37" y="-58.179" width="200.42" height="187.18"/>
	</defs>
	<clipPath id="SVGID_2_">
		<use xlink:href="#SVGID_1_"  overflow="visible"/>
	</clipPath>
	<path clip-path="url(#SVGID_2_)" fill="#009FE3" d="M241.216-43.355l-6.322,10.357c0.197,0.103,0.4,0.19,0.597,0.294
		C261.756-18.956,278.07,7.984,278.07,37.6c0,43.729-35.575,79.304-79.303,79.304c-16.741,0-32.738-5.153-46.276-14.898
		l-6.312,10.341C161.626,123.236,179.781,129,198.767,129c50.397,0,91.4-41.003,91.4-91.4
		C290.167,3.511,271.412-27.495,241.216-43.355"/>
	<path clip-path="url(#SVGID_2_)" fill="#009FE3" d="M122.906,88.559l7.068-11.58c-6.854-11.952-10.508-25.493-10.508-39.378
		c0-43.728,35.574-79.302,79.301-79.302c1.191,0,2.383,0.071,3.573,0.123l7.078-11.596c-1.401-0.161-2.81-0.303-4.225-0.401
		c-2.124-0.147-4.286-0.223-6.427-0.223c-50.397,0-91.397,41.001-91.397,91.398c0,17.048,4.728,33.683,13.668,48.102
		C121.64,86.672,122.272,87.616,122.906,88.559"/>
</g>
<text transform="matrix(1 0 0 1 225.2485 -6.3086)" fill="#FFFFFF" font-family="'Futura-Medium'" font-size="27.054">H</text>
<text transform="matrix(1 0 0 1 211.3442 16.0645)"><tspan x="0" y="0" fill="#FFFFFF" font-family="'Futura-Medium'" font-size="27.054" letter-spacing="-2">E</tspan><tspan x="13.133" y="0" fill="#FFFFFF" font-family="'Futura-Medium'" font-size="27.054" letter-spacing="-2">I</tspan><tspan x="18.975" y="0" fill="#FFFFFF" font-family="'Futura-Medium'" font-size="27.054" letter-spacing="-2">D</tspan><tspan x="36.453" y="0" fill="#FFFFFF" font-family="'Futura-Medium'" font-size="27.054">E</tspan></text>
<text transform="matrix(1 0 0 1 197.5728 38.438)"><tspan x="0" y="0" fill="#FFFFFF" font-family="'Futura-Medium'" font-size="27.054" letter-spacing="-1">LBE</tspan><tspan x="37.607" y="0" fill="#FFFFFF" font-family="'Futura-Medium'" font-size="27.054" letter-spacing="-2">R</tspan><tspan x="51.543" y="0" fill="#FFFFFF" font-family="'Futura-Medium'" font-size="27.054">G</tspan></text>
<text transform="matrix(1 0 0 1 183.6665 60.813)"><tspan x="0" y="0" fill="#FFFFFF" font-family="'Futura-Medium'" font-size="27.054" letter-spacing="-2">ER</tspan><tspan x="27.258" y="0" fill="#FFFFFF" font-family="'Futura-Medium'" font-size="27.054" letter-spacing="-2">     </tspan><tspan x="58.314" y="0" fill="#FFFFFF" font-family="'Futura-Medium'" font-size="27.054" letter-spacing="-2">S</tspan><tspan x="71.76" y="0" fill="#FFFFFF" font-family="'Futura-Medium'" font-size="27.054">Y</tspan></text>
<text transform="matrix(1 0 0 1 169.897 83.186)"><tspan x="0" y="0" fill="#FFFFFF" font-family="'Futura-Medium'" font-size="27.054">M</tspan><tspan x="25.199" y="0" fill="#FFFFFF" font-family="'Futura-Medium'" font-size="27.054">P</tspan></text>
<text transform="matrix(1 0 0 1 208.8813 83.186)" fill="#FFFFFF" font-family="'Futura-Medium'" font-size="27.054">O</text>
<text transform="matrix(1 0 0 1 232.2563 83.186)" fill="#FFFFFF" font-family="'Futura-Medium'" font-size="27.054">S</text>
<text transform="matrix(1 0 0 1 247.2173 83.186)" fill="#FFFFFF" font-family="'Futura-Medium'" font-size="27.054">I</text>
<text transform="matrix(1 0 0 1 155.9907 105.5591)"><tspan x="0" y="0" fill="#FFFFFF" font-family="'Futura-Medium'" font-size="27.054" letter-spacing="-2">U</tspan><tspan x="17.85" y="0" fill="#FFFFFF" font-family="'Futura-Medium'" font-size="27.054">M</tspan></text>
</svg>
