<?xml version="1.0" encoding="UTF-8" standalone="no"?>
<svg width="84px" height="64px" viewBox="0 0 84 64" version="1.1" xmlns="http://www.w3.org/2000/svg" xmlns:xlink="http://www.w3.org/1999/xlink" xmlns:sketch="http://www.bohemiancoding.com/sketch/ns">
    <title>hand-right</title>
    <description>Created with Sketch (http://www.bohemiancoding.com/sketch)</description>
    <defs></defs>
    <g id="Page-1" stroke="none" stroke-width="1" fill="none" fill-rule="evenodd" sketch:type="MSPage">
        <g id="hand-right" sketch:type="MSLayerGroup" transform="translate(0.000000, 1.000000)" fill="#009FE3">
            <path d="M18.658,62.072 C18.029,62.072 17.539,61.976 17.265,61.747 C16.048,60.732 15.818,59.463 16.584,58.114 C16.393,58.186 16.204,58.259 16.017,58.328 C15.281,58.789 8.063,63.075 5.546,60.056 C4.848,59.219 4.601,58.403 4.809,57.632 C4.943,57.138 5.253,56.717 5.653,56.357 C3.673,56.752 1.34,56.895 0.672,55.622 C0.088,54.505 -0.032,53.472 0.318,52.549 C0.872,51.086 2.409,50.487 2.474,50.461 L3.975,49.808 C2.637,49.845 1.24,49.575 0.737,48.445 C-0.077,46.613 0.78,45.049 3.286,43.796 C9.971,40.454 19.805,35.557 19.805,35.557 C20.475,35.136 37.193,24.705 40.897,22.738 C42.043,22.129 42.688,21.463 42.872,20.702 C43.065,19.896 42.748,18.915 41.899,17.703 C41.024,16.455 38.908,14.777 36.858,13.155 C35.195,11.837 33.623,10.592 32.723,9.585 C32.67,9.526 27.73,3.156 29.298,0.743 C29.646,0.207 30.151,-0.128 30.798,-0.254 C32.94,-0.668 36.006,1.456 36.137,1.548 C42.72,5.633 52.829,11.828 53.603,12.092 C55.232,12.529 57.733,16.433 58.24,17.246 C59.2,17.796 65.974,21.698 67.328,23.053 C68.115,23.84 76.783,24.076 84.706,23.849 L84.733,24.782 C81.973,24.86 68.135,25.179 66.669,23.713 C65.33,22.374 57.75,18.041 57.674,17.998 L57.57,17.939 L57.508,17.837 C56.447,16.111 54.384,13.268 53.355,12.992 C52.433,12.744 38.422,4.066 35.624,2.328 C34.808,1.759 32.419,0.378 30.977,0.664 C30.582,0.741 30.29,0.933 30.081,1.253 C29.086,2.785 32.602,8.053 33.42,8.966 C34.266,9.912 35.809,11.133 37.439,12.425 C39.539,14.09 41.712,15.81 42.664,17.171 C43.675,18.614 44.039,19.84 43.781,20.921 C43.531,21.957 42.732,22.821 41.336,23.563 C37.662,25.515 20.435,36.263 20.261,36.373 C20.222,36.394 10.39,41.29 3.706,44.633 C1.036,45.968 1.221,47.233 1.592,48.069 C2.158,49.344 5.396,48.798 6.485,48.507 L26.828,39.861 L27.196,40.717 L2.827,51.323 C2.796,51.336 1.59,51.815 1.188,52.885 C0.939,53.546 1.045,54.321 1.499,55.188 C2.033,56.207 5.793,55.517 8.167,54.729 L30.205,45.337 L30.579,46.192 C29.768,46.551 10.73,55.014 9.33,55.531 L9.11,55.611 C8.106,55.975 6.019,56.733 5.711,57.874 C5.586,58.335 5.772,58.869 6.264,59.458 C7.964,61.499 13.588,58.73 15.611,57.493 C28.959,52.472 33.057,50.941 34.403,50.645 C34.423,50.635 34.44,50.626 34.45,50.62 L34.459,50.633 C35.005,50.52 35.058,50.63 35.135,50.781 L35.326,51.152 L34.962,51.4 C34.699,51.575 33.503,52.004 30.149,53.186 C26.041,54.634 18.393,57.329 17.771,58.029 C16.512,59.602 17.22,60.495 17.863,61.031 C18.597,61.646 24.009,60.257 28.6,58.618 C28.771,58.577 39.895,56.201 41.469,55.806 C41.633,55.765 42.211,55.688 43.501,55.517 C47.044,55.048 54.416,54.072 58.005,53.013 C59.769,52.493 61.472,51.59 63.274,50.636 C65.693,49.355 68.435,47.903 71.797,47.174 C74.497,46.591 84.075,46.469 84.482,46.465 L84.494,47.398 C84.395,47.399 74.603,47.523 71.995,48.087 C68.758,48.786 66.192,50.146 63.712,51.46 C61.866,52.438 60.123,53.36 58.271,53.907 C54.613,54.986 47.191,55.969 43.625,56.441 C42.659,56.568 41.825,56.679 41.697,56.711 C40.108,57.109 29.315,59.414 28.856,59.513 C26.981,60.185 21.445,62.072 18.658,62.072 L18.658,62.072 Z" id="Shape" sketch:type="MSShapeGroup"></path>
            <path d="M41.115,23.147 C43.926,21.653 43.913,19.766 42.281,17.434 C40.649,15.102 35.052,11.488 33.071,9.272 C32.579,8.723 28.418,2.95 29.69,0.994 C29.69,0.994 34.43,2.704 36.452,3.948 C38.473,5.191 39.717,10.01 40.649,10.01 C41.581,10.01 49.665,14.518 50.443,15.14 C51.218,15.762 52.774,18.093 52.463,18.715 C52.153,19.337 50.288,20.114 50.755,21.047 C51.221,21.98 61.013,28.469 61.324,29.441 C61.562,30.182 62.101,35.038 61.79,35.503 C61.479,35.97 52.039,36.582 48.423,36.28 C44.693,35.969 41.116,33.483 38.163,33.015 C35.208,32.549 29.714,37.538 29.923,35.659 C30.078,34.261 34.12,29.751 34.12,29.596 C34.12,29.44 35.81,28.1 35.81,28.1 C35.81,28.1 39.499,26.634 39.075,25.418 C38.667,24.255 41.115,23.147 41.115,23.147 L41.115,23.147 Z" id="Shape" sketch:type="MSShapeGroup"></path>
            <path d="M27.008,40.286 C27.299,40.694 6.604,48.953 6.604,48.953 C6.604,48.953 2.478,50.348 1.621,48.419 C1.621,48.419 1.843,46.371 2.758,46.728 C5.148,47.662 9.462,46.641 9.462,46.641 L13.445,45.144 L17.176,43.279 C17.176,43.279 24.655,40.579 25.26,40.014 C25.843,39.471 26.018,37.314 26.309,37.547 C26.862,37.989 26.717,39.877 27.008,40.286 L27.008,40.286 Z" id="Shape" sketch:type="MSShapeGroup"></path>
            <path d="M30.389,45.766 L8.313,55.17 C8.313,55.17 2.053,57.25 1.084,55.403 C1.084,55.403 1.94,53.382 2.717,53.693 C3.494,54.004 7.381,53.227 7.847,53.382 C8.313,53.536 14.765,51.653 16.018,51.099 C17.271,50.544 17.951,49.853 19.982,49 C21.285,48.452 22.86,48.082 24.267,47.513 C26.916,46.441 29.169,45.25 29.301,44.988 C29.611,44.366 28.368,42.85 28.931,43.025 C29.495,43.201 30.389,45.766 30.389,45.766 L30.389,45.766 Z" id="Shape" sketch:type="MSShapeGroup"></path>
            <path d="M35.665,51.303 C35.654,51.423 34.594,51.364 33.362,51.799 C28.268,53.597 15.562,57.774 15.562,57.774 C15.562,57.774 7.945,62.438 5.613,59.64 C5.613,59.64 7.147,57.599 7.77,58.066 C8.391,58.532 14.551,56.998 14.551,56.998 C14.551,56.998 18.239,55.8 20.915,54.743 C22.084,54.281 23.159,53.563 23.48,53.461 C24.675,53.082 25.599,53.037 27.356,52.528 C30.092,51.734 33.171,50.63 33.36,50.488 C33.67,50.255 32.045,47.675 32.427,47.825 C33.263,48.156 33.66,49.199 34.147,49.846 C34.849,50.779 35.723,50.692 35.665,51.303 L35.665,51.303 Z" id="Shape" sketch:type="MSShapeGroup"></path>
            <path d="M84.487,46.931 C84.487,46.931 74.581,47.05 71.895,47.631 C66.142,48.875 62.378,52.209 58.137,53.46 C53.396,54.859 42.203,56.103 41.581,56.258 C39.982,56.659 28.756,59.057 28.756,59.057 C28.756,59.057 18.963,62.554 17.564,61.388 C17.564,61.388 17.485,59.135 18.418,59.446 C19.351,59.757 25.258,57.891 25.725,57.891 C25.912,57.891 28.267,57.699 30.942,57.249 C32.015,57.069 33.061,56.443 34.149,56.258 C35.07,56.101 35.985,56.198 36.769,56.065 C38.492,55.77 39.716,55.559 39.716,55.559 C39.716,55.559 41.272,54.937 41.426,55.093 C41.581,55.248 41.931,52.858 42.514,52.605 C43.097,52.353 47.702,52.548 48.576,52.451 C49.451,52.353 51.686,51.207 51.686,51.207 C51.686,51.207 55.416,47.32 56.193,46.543 C56.97,45.767 61.868,40.423 63.5,40.325 C65.133,40.228 70.184,43.745 70.184,43.745 L75.937,44.833 L84.02,44.833 L84.487,46.931 L84.487,46.931 Z" id="Shape" sketch:type="MSShapeGroup"></path>
            <path d="M84.796,31.931 L73.294,32.242 C73.294,32.242 72.516,30.221 71.583,30.377 C70.65,30.533 70.184,29.911 69.718,30.843 C69.251,31.776 70.339,35.196 70.339,35.196 C70.339,35.196 71.274,39.55 72.516,39.393 C73.76,39.238 75.469,35.663 76.402,35.663 C77.335,35.663 84.641,35.974 84.641,35.974" id="Shape" sketch:type="MSShapeGroup"></path>
        </g>
    </g>
</svg>