<?xml version="1.0" encoding="UTF-8" standalone="no"?>
<svg width="82px" height="53px" viewBox="0 0 82 53" version="1.1" xmlns="http://www.w3.org/2000/svg" xmlns:xlink="http://www.w3.org/1999/xlink" xmlns:sketch="http://www.bohemiancoding.com/sketch/ns">
    <title>hand-right</title>
    <description>Created with Sketch (http://www.bohemiancoding.com/sketch)</description>
    <defs></defs>
    <g id="Page-1" stroke="none" stroke-width="1" fill="none" fill-rule="evenodd" sketch:type="MSPage">
        <g id="hand-left" sketch:type="MSLayerGroup" transform="translate(-1.000000, 0.000000)" fill="#009FE3">
            <path d="M79.151,49.21 C77.834,49.21 76.583,48.619 76.153,48.298 L70.391,43.705 L71.014,42.923 L76.764,47.507 C77.121,47.775 78.477,48.361 79.63,48.174 C80.209,48.08 80.645,47.815 80.959,47.362 C81.492,46.595 81.678,45.687 81.48,44.806 C81.178,43.461 80.016,42.173 78.119,41.08 C77.678,40.825 75.973,39.076 73.425,36.435 C72.196,35.163 70.804,33.72 70.586,33.558 C70.086,33.224 63.321,27.665 62.552,27.033 C61.131,25.615 57.889,22.297 57.712,21.411 L58.69,21.203 C58.848,21.705 61.167,24.236 63.223,26.293 C66.194,28.733 70.795,32.496 71.147,32.731 C71.381,32.887 72.198,33.724 74.145,35.741 C75.774,37.429 78.235,39.977 78.621,40.214 C81.331,41.775 82.203,43.454 82.457,44.588 C82.716,45.745 82.476,46.933 81.78,47.933 C81.309,48.611 80.639,49.023 79.79,49.16 C79.577,49.196 79.364,49.21 79.151,49.21 L79.151,49.21 L79.151,49.21 Z" id="Shape" sketch:type="MSShapeGroup"></path>
            <path d="M79.436,39.91 C78.319,39.91 77.204,39.651 76.572,39.35 L77.002,38.447 C78.13,38.983 80.557,39.186 81.473,38.354 C81.632,38.209 82.117,37.768 81.651,36.487 C80.38,32.99 73.869,27.589 73.802,27.534 C73.79,27.526 71.517,25.754 68.622,23.19 C67.91,22.559 66.397,21.125 64.798,19.606 C62.458,17.386 59.253,14.346 58.808,14.093 C58.546,13.962 58.107,13.781 57.581,13.564 C54.354,12.229 51.726,11.001 52.229,9.49 C52.592,8.4 53.965,8.095 55.555,7.742 C56.725,7.483 58.051,7.189 59.112,6.553 C61.216,5.29 64.737,3.178 64.874,2.086 C64.88,2.034 64.897,1.895 64.686,1.708 C64.018,1.115 61.972,0.809 59.99,1.3 C58.184,1.747 51.866,1.596 48.001,1.313 C46.155,1.182 43.456,2.914 41.063,4.444 C39.202,5.634 37.595,6.662 36.378,6.89 C32.356,7.644 1.633,5.089 0.328,4.98 L0.411,3.984 C0.729,4.01 32.305,6.633 36.194,5.908 C37.22,5.716 38.825,4.689 40.524,3.602 C43.047,1.988 45.915,0.16 48.073,0.317 C52.35,0.628 58.254,0.7 59.75,0.329 C61.929,-0.211 64.337,0.059 65.351,0.96 C65.851,1.404 65.908,1.885 65.867,2.21 C65.685,3.669 63.053,5.356 59.629,7.41 C58.428,8.131 57.018,8.443 55.774,8.719 C54.534,8.994 53.364,9.253 53.178,9.806 C53.065,10.148 53.803,10.917 57.965,12.639 C58.518,12.868 58.981,13.06 59.262,13.201 C59.698,13.419 61.453,15.054 65.487,18.88 C67.082,20.393 68.588,21.821 69.287,22.441 C72.157,24.983 74.407,26.736 74.429,26.754 C74.717,26.991 81.228,32.393 82.592,36.145 C83.167,37.725 82.667,38.621 82.148,39.094 C81.485,39.693 80.459,39.909 79.436,39.91 L79.436,39.91 L79.436,39.91 Z" id="Shape" sketch:type="MSShapeGroup"></path>
            <path d="M71.761,51.691 C71.139,51.691 70.419,51.618 69.584,51.452 L69.779,50.472 C72.193,50.954 73.793,50.651 74.4,49.593 C74.951,48.632 74.558,47.323 74.329,47.064 C74.105,46.812 71.79,44.867 70.383,43.701 C67.352,41.102 62.358,36.885 61.836,36.607 C61.375,36.456 54.783,31.492 50.9,28.548 L51.504,27.751 C55.363,30.676 61.688,35.418 62.23,35.689 C62.684,35.839 67.268,39.714 71.028,42.935 C71.639,43.443 74.737,46.017 75.077,46.4 C75.554,46.936 76.052,48.724 75.268,50.091 C74.816,50.877 73.844,51.691 71.761,51.691 L71.761,51.691 L71.761,51.691 Z" id="Shape" sketch:type="MSShapeGroup"></path>
            <path d="M66.036,52.481 C64.848,52.481 51.256,46.817 50.479,46.428 C49.475,45.926 41.618,41.318 41.283,41.121 L41.177,41.037 C41.203,41.072 40.705,40.838 38.531,40.814 C34.76,40.771 28.239,37.121 26.378,35.527 C25.697,34.945 25.135,34.134 24.539,33.277 C23.544,31.845 22.515,30.364 20.94,30.054 C17.245,29.327 0.393,29.974 0.223,29.98 L0.184,28.981 C0.882,28.955 17.322,28.324 21.134,29.073 C23.106,29.461 24.304,31.185 25.361,32.707 C25.919,33.51 26.446,34.269 27.029,34.768 C28.756,36.247 35.056,39.776 38.543,39.815 C40.309,39.835 41.406,39.989 41.813,40.272 C42.288,40.551 49.98,45.06 50.928,45.534 C52.113,46.127 65.012,51.401 66.048,51.482 C66.53,51.481 67.728,51.094 68.744,50.717 C67.391,49.915 66.018,49.182 65.693,49.148 C64.772,49.149 56.861,44.733 55.913,44.055 C54.755,43.227 46.903,37.299 46.57,37.047 L47.172,36.249 C47.254,36.311 55.348,42.42 56.495,43.241 C57.693,44.097 64.951,48.011 65.742,48.15 L65.743,48.15 C66.412,48.15 68.783,49.552 70.135,50.388 L70.967,50.904 L70.062,51.276 C69.76,51.4 67.104,52.481 66.036,52.481 L66.036,52.481 L66.036,52.481 Z" id="Shape" sketch:type="MSShapeGroup"></path>
            <path d="M76.787,38.899 C76.065,38.483 71.37,33.483 70.87,33.149 C70.37,32.815 62.87,26.649 62.87,26.649 C62.87,26.649 57.849,22.295 57.682,21.461 C57.682,21.461 56.952,19.814 57.369,19.814 C57.786,19.814 59.202,20.064 59.286,20.314 C59.369,20.564 60.452,22.564 60.452,22.564 L63.286,25.814 C63.286,25.814 66.702,28.481 67.202,28.814 C67.702,29.148 69.869,30.982 70.369,31.482 C70.869,31.982 73.869,34.48 74.119,34.648 C74.369,34.814 75.473,36.259 76.057,36.259 C76.641,36.259 79.995,33.368 78.182,35.306 C76.115,37.515 79.573,39.322 79.202,39.232 C78.307,39.014 76.787,38.899 76.787,38.899 L76.787,38.899 L76.787,38.899 Z" id="Shape" sketch:type="MSShapeGroup"></path>
            <path d="M52.703,9.648 C53.507,8.287 56.87,8.481 59.37,6.981 C61.87,5.481 66.21,2.562 65.224,1.648 C64.078,0.586 64.506,1.952 64.078,1.981 C60.028,2.26 59.16,4.127 58.203,4.627 C57.244,5.127 56.598,5.044 55.619,5.398 C54.64,5.752 52.807,7.336 52.14,8.273 C51.797,8.756 52.016,10.81 52.703,9.648 L52.703,9.648 L52.703,9.648 Z" id="Shape" sketch:type="MSShapeGroup"></path>
            <path d="M74.704,46.731 C74.372,46.358 70.703,43.315 70.703,43.315 C70.703,43.315 62.536,36.315 62.036,36.149 C61.536,35.981 50.901,28.618 50.901,28.618 C50.901,28.618 50.702,28.231 50.619,27.981 C50.536,27.731 52.119,26.981 52.369,27.231 C52.619,27.481 53.202,29.064 53.202,29.064 L58.952,33.232 L62.702,35.814 L66.036,37.732 L68.119,39.898 L72.369,43.064 C72.369,43.064 74.313,44.652 75.407,44.824 C76.501,44.996 80.182,41.228 76.432,45.51 C75.891,46.127 76.854,46.666 78.536,48.315 C79.809,49.563 74.704,46.731 74.704,46.731 L74.704,46.731 L74.704,46.731 Z" id="Shape" sketch:type="MSShapeGroup"></path>
            <path d="M69.87,50.815 C69.87,50.815 66.37,48.649 65.703,48.649 C65.036,48.649 57.37,44.483 56.203,43.649 C55.036,42.815 46.557,37.024 46.557,37.024 C46.557,37.024 45.307,37.106 45.307,36.522 C45.307,35.94 46.203,35.147 46.619,35.147 C47.035,35.147 46.951,34.262 47.535,34.565 C48.119,34.868 48.285,36.397 48.285,36.397 C48.285,36.397 55.701,42.149 56.285,42.315 C56.869,42.481 62.785,46.147 62.785,46.147 L69.869,49.231 C69.869,49.231 71.702,48.858 71.869,49.358 L72.869,50.68 L72.452,51.147 L69.87,50.815 L69.87,50.815 Z" id="Shape" sketch:type="MSShapeGroup"></path>
            <path d="M0.203,29.481 C0.203,29.481 17.239,28.817 21.036,29.565 C23.786,30.106 24.924,33.626 26.703,35.149 C28.453,36.647 34.87,40.274 38.536,40.315 C41.207,40.344 41.536,40.69 41.536,40.69 C41.536,40.69 49.703,45.481 50.703,45.981 C51.703,46.481 65.036,51.981 66.036,51.981 C67.036,51.981 69.329,50.606 69.329,50.606 C69.329,50.606 65.294,48.631 65.026,48.805 C64.255,49.305 60.745,49.211 59.995,49.024 C59.753,48.963 52.369,46.149 51.786,45.649 C51.203,45.149 43.036,40.065 42.62,39.899 C42.203,39.733 41.12,38.481 40.953,38.149 C40.786,37.815 39.786,36.317 39.12,36.483 C38.454,36.649 35.12,35.815 33.953,34.815 C32.786,33.815 29.453,30.233 27.286,29.317 C25.119,28.399 23.119,22.983 21.203,22.4 C19.287,21.817 1.953,20.9 0.286,21.15 C-1.381,21.4 0.203,29.481 0.203,29.481 L0.203,29.481 L0.203,29.481 Z" id="Shape" sketch:type="MSShapeGroup"></path>
        </g>
    </g>
</svg>