<?xml version="1.0" encoding="UTF-8" standalone="no"?>
<svg width="99px" height="99px" viewBox="0 0 99 99" version="1.1" xmlns="http://www.w3.org/2000/svg" xmlns:xlink="http://www.w3.org/1999/xlink" xmlns:sketch="http://www.bohemiancoding.com/sketch/ns">
    <title>logo</title>
    <description>Created with Sketch (http://www.bohemiancoding.com/sketch)</description>
    <defs></defs>
    <g id="Page-1" stroke="none" stroke-width="1" fill="none" fill-rule="evenodd" sketch:type="MSPage">
        <g id="logo" sketch:type="MSLayerGroup">
            <g id="Group" transform="translate(24.000000, 25.000000)" fill="#009FE3" sketch:type="MSShapeGroup">
                <path d="M-0.058,30.073 L0.994,28.356 L4.094,29.003 C5.316,29.26 6.181,29.498 6.688,29.714 C6.436,29.475 6.198,29.234 5.973,28.99 C5.748,28.747 5.524,28.499 5.304,28.248 L4.995,27.894 L2.807,25.395 L3.901,23.61 L8.873,30 L17.027,31.653 L15.932,33.439 L12.901,32.774 C12.295,32.645 11.76,32.512 11.298,32.376 C10.835,32.24 10.437,32.102 10.104,31.96 C10.456,32.238 10.771,32.537 11.051,32.856 L11.803,33.726 L12.201,34.181 L14.118,36.397 L12.972,38.268 L7.828,31.701 L-0.058,30.073 L-0.058,30.073 Z" id="Shape"></path>
                <path d="M5.538,20.942 L6.591,19.224 L9.691,19.872 C10.913,20.13 11.777,20.367 12.283,20.583 C12.032,20.344 11.794,20.103 11.569,19.86 C11.344,19.616 11.121,19.369 10.902,19.117 L10.592,18.763 L8.404,16.264 L9.498,14.478 L14.469,20.87 L22.625,22.522 L21.531,24.307 L18.499,23.643 C17.893,23.513 17.359,23.38 16.896,23.244 C16.433,23.109 16.034,22.97 15.702,22.828 C16.054,23.106 16.369,23.405 16.648,23.724 L17.401,24.594 L17.8,25.049 L19.718,27.264 L18.571,29.135 L13.426,22.568 L5.538,20.942 L5.538,20.942 Z" id="Shape"></path>
                <path d="M11.04,11.963 L12.109,10.22 L17.439,12.399 L18.397,12.799 L20.475,13.686 C20.824,13.838 21.145,13.979 21.434,14.104 C21.723,14.231 21.983,14.347 22.216,14.45 L22.913,14.761 C22.795,14.664 22.686,14.579 22.592,14.505 C22.496,14.431 22.419,14.368 22.357,14.315 L20.976,13.153 L19.16,11.63 C18.998,11.49 18.846,11.361 18.709,11.241 C18.571,11.122 18.451,11.014 18.345,10.92 L14.021,7.1 L15.032,5.451 L26.578,16.07 L25.72,17.473 L11.04,11.963 L11.04,11.963 Z" id="Shape"></path>
                <path d="M17.225,1.87 L18.309,0.102 L31.434,8.146 L30.351,9.914 L17.225,1.87 L17.225,1.87 Z" id="Shape"></path>
            </g>
            <g id="Group" fill="#009FE3" sketch:type="MSShapeGroup">
                <path d="M72.496,5.988 L69.089,11.569 C69.195,11.625 69.305,11.672 69.41,11.727 C83.564,19.136 92.354,33.653 92.354,49.612 C92.354,73.175 73.185,92.347 49.622,92.347 C40.6,92.347 31.98,89.568 24.685,84.319 L21.283,89.891 C29.608,95.757 39.39,98.865 49.622,98.865 C76.779,98.865 98.875,76.769 98.875,49.612 C98.875,31.244 88.766,14.535 72.496,5.988" id="Shape"></path>
                <path d="M12.551,70.832 C8.858,64.392 6.888,57.095 6.888,49.613 C6.887,26.05 26.058,6.88 49.622,6.88 C50.264,6.88 50.905,6.918 51.547,6.945 L55.361,0.697 C54.605,0.61 53.847,0.533 53.085,0.48 C51.939,0.401 50.775,0.36 49.622,0.36 C22.463,0.361 0.37,22.456 0.37,49.613 C0.37,58.8 2.917,67.764 7.735,75.533 C8.06,76.057 8.4,76.563 8.742,77.073 L12.551,70.832 Z" id="Shape"></path>
            </g>
            <path d="M71.608,19.26 L71.608,14.96 L73.266,14.96 L73.266,25.951 L71.608,25.951 L71.608,20.819 L66.866,20.819 L66.866,25.951 L65.208,25.951 L65.208,14.96 L66.866,14.96 L66.866,19.26 L71.608,19.26 Z" id="Shape" fill="#FFFFFF" sketch:type="MSShapeGroup"></path>
            <g id="Group" transform="translate(58.000000, 27.000000)" fill="#FFFFFF" sketch:type="MSShapeGroup">
                <path d="M5.781,1.576 L1.374,1.576 L1.374,4.216 L5.652,4.216 L5.652,5.776 L1.374,5.776 L1.374,9.449 L5.781,9.449 L5.781,11.008 L-0.284,11.008 L-0.284,0.017 L5.781,0.017 L5.781,1.576 L5.781,1.576 Z" id="Shape"></path>
                <path d="M8.451,0.017 L8.451,11.008 L6.792,11.008 L6.792,0.017 L8.451,0.017 L8.451,0.017 Z" id="Shape"></path>
                <path d="M9.94,11.008 L9.94,0.017 L12.247,0.017 C13.352,0.017 14.226,0.126 14.866,0.345 C15.554,0.558 16.178,0.921 16.738,1.434 C17.872,2.468 18.44,3.829 18.44,5.513 C18.44,7.202 17.848,8.57 16.668,9.613 C16.074,10.135 15.451,10.498 14.802,10.702 C14.195,10.907 13.334,11.009 12.218,11.009 L9.94,11.009 L9.94,11.008 Z M11.599,9.449 L12.345,9.449 C13.091,9.449 13.71,9.37 14.203,9.214 C14.696,9.047 15.142,8.785 15.543,8.424 C16.357,7.678 16.766,6.709 16.766,5.512 C16.766,4.306 16.363,3.329 15.555,2.579 C14.83,1.909 13.759,1.576 12.345,1.576 L11.599,1.576 L11.599,9.449 L11.599,9.449 Z" id="Shape"></path>
                <path d="M25.423,1.576 L21.018,1.576 L21.018,4.216 L25.295,4.216 L25.295,5.776 L21.018,5.776 L21.018,9.449 L25.423,9.449 L25.423,11.008 L19.359,11.008 L19.359,0.017 L25.423,0.017 L25.423,1.576 L25.423,1.576 Z" id="Shape"></path>
            </g>
            <g id="Group" transform="translate(50.000000, 39.000000)" fill="#FFFFFF" sketch:type="MSShapeGroup">
                <path d="M1.953,0.073 L1.953,9.505 L5.185,9.505 L5.185,11.064 L0.294,11.064 L0.294,0.073 L1.953,0.073 L1.953,0.073 Z" id="Shape"></path>
                <path d="M5.737,11.064 L5.737,0.073 L7.388,0.073 C8.123,0.073 8.71,0.131 9.148,0.244 C9.588,0.358 9.961,0.55 10.265,0.821 C10.574,1.102 10.818,1.45 10.997,1.867 C11.183,2.29 11.274,2.717 11.274,3.149 C11.274,3.937 10.973,4.604 10.37,5.149 C10.955,5.348 11.415,5.697 11.752,6.195 C12.094,6.688 12.264,7.263 12.264,7.917 C12.264,8.776 11.961,9.502 11.352,10.095 C10.988,10.462 10.578,10.716 10.123,10.858 C9.625,10.996 9.001,11.064 8.251,11.064 L5.737,11.064 L5.737,11.064 Z M7.397,4.793 L7.916,4.793 C8.533,4.793 8.985,4.656 9.271,4.383 C9.558,4.11 9.702,3.708 9.702,3.176 C9.702,2.658 9.555,2.266 9.263,1.997 C8.967,1.729 8.539,1.595 7.981,1.595 L7.398,1.595 L7.398,4.793 L7.397,4.793 Z M7.397,9.505 L8.421,9.505 C9.171,9.505 9.72,9.358 10.071,9.064 C10.442,8.746 10.627,8.342 10.627,7.854 C10.627,7.379 10.447,6.981 10.093,6.658 C9.746,6.34 9.128,6.18 8.237,6.18 L7.397,6.18 L7.397,9.505 L7.397,9.505 Z" id="Shape"></path>
                <path d="M19.404,1.632 L14.996,1.632 L14.996,4.273 L19.274,4.273 L19.274,5.832 L14.996,5.832 L14.996,9.505 L19.404,9.505 L19.404,11.064 L13.338,11.064 L13.338,0.073 L19.404,0.073 L19.404,1.632 L19.404,1.632 Z" id="Shape"></path>
                <path d="M24.284,6.38 L27.687,11.064 L25.657,11.064 L22.516,6.565 L22.218,6.565 L22.218,11.064 L20.559,11.064 L20.559,0.073 L22.504,0.073 C23.956,0.073 25.002,0.346 25.649,0.892 C26.362,1.499 26.717,2.301 26.717,3.298 C26.717,4.076 26.494,4.746 26.047,5.306 C25.601,5.865 25.013,6.224 24.284,6.38 L24.284,6.38 Z M22.218,5.121 L22.745,5.121 C24.315,5.121 25.101,4.52 25.101,3.32 C25.101,2.195 24.336,1.632 22.809,1.632 L22.217,1.632 L22.217,5.121 L22.218,5.121 Z" id="Shape"></path>
                <path d="M33.72,5.341 L38.261,5.341 L38.261,5.703 C38.261,6.53 38.165,7.261 37.97,7.897 C37.782,8.485 37.46,9.036 37.009,9.548 C35.988,10.696 34.69,11.27 33.115,11.27 C31.578,11.27 30.26,10.716 29.166,9.604 C28.068,8.489 27.52,7.151 27.52,5.589 C27.52,3.995 28.078,2.642 29.194,1.532 C30.308,0.417 31.666,-0.141 33.264,-0.141 C34.122,-0.141 34.925,0.034 35.668,0.384 C36.382,0.734 37.081,1.301 37.771,2.088 L36.587,3.22 C35.687,2.019 34.588,1.42 33.292,1.42 C32.131,1.42 31.154,1.82 30.368,2.622 C29.579,3.41 29.184,4.397 29.184,5.583 C29.184,6.808 29.622,7.816 30.502,8.609 C31.321,9.344 32.212,9.712 33.171,9.712 C33.986,9.712 34.721,9.438 35.369,8.889 C36.019,8.335 36.383,7.673 36.459,6.9 L33.72,6.9 L33.72,5.341 L33.72,5.341 Z" id="Shape"></path>
            </g>
            <g id="Group" transform="translate(43.000000, 51.000000)" fill="#FFFFFF" sketch:type="MSShapeGroup">
                <path d="M5.867,1.689 L1.459,1.689 L1.459,4.33 L5.737,4.33 L5.737,5.89 L1.459,5.89 L1.459,9.563 L5.867,9.563 L5.867,11.123 L-0.2,11.123 L-0.2,0.13 L5.867,0.13 L5.867,1.689 L5.867,1.689 Z" id="Shape"></path>
                <path d="M10.601,6.437 L14.003,11.122 L11.974,11.122 L8.835,6.622 L8.536,6.622 L8.536,11.122 L6.877,11.122 L6.877,0.13 L8.82,0.13 C10.272,0.13 11.321,0.402 11.966,0.949 C12.679,1.556 13.034,2.358 13.034,3.355 C13.034,4.132 12.811,4.802 12.364,5.361 C11.92,5.922 11.331,6.281 10.601,6.437 L10.601,6.437 Z M8.537,5.177 L9.062,5.177 C10.633,5.177 11.42,4.577 11.42,3.376 C11.42,2.251 10.655,1.689 9.127,1.689 L8.536,1.689 L8.536,5.177 L8.537,5.177 Z" id="Shape"></path>
                <path d="M37.439,1.761 L36.093,2.557 C35.841,2.12 35.602,1.836 35.373,1.703 C35.136,1.551 34.83,1.474 34.455,1.474 C33.995,1.474 33.612,1.605 33.309,1.867 C33.005,2.123 32.854,2.446 32.854,2.835 C32.854,3.372 33.251,3.803 34.049,4.132 L35.146,4.58 C36.038,4.941 36.69,5.382 37.103,5.902 C37.515,6.422 37.722,7.06 37.722,7.815 C37.722,8.826 37.385,9.661 36.711,10.323 C36.033,10.988 35.19,11.32 34.185,11.32 C33.23,11.32 32.444,11.036 31.821,10.469 C31.209,9.903 30.826,9.107 30.675,8.081 L32.355,7.711 C32.432,8.355 32.565,8.803 32.754,9.05 C33.096,9.524 33.594,9.761 34.247,9.761 C34.767,9.761 35.195,9.588 35.537,9.242 C35.88,8.897 36.051,8.457 36.051,7.926 C36.051,7.713 36.02,7.517 35.961,7.339 C35.901,7.162 35.81,6.998 35.684,6.848 C35.557,6.699 35.395,6.559 35.196,6.43 C34.997,6.299 34.759,6.174 34.485,6.056 L33.424,5.615 C31.918,4.979 31.168,4.05 31.168,2.826 C31.168,2 31.482,1.311 32.113,0.757 C32.744,0.197 33.529,-0.083 34.469,-0.083 C35.737,-0.083 36.727,0.532 37.439,1.761 L37.439,1.761 Z" id="Shape"></path>
                <path d="M40.691,6.372 L37.103,0.13 L39.012,0.13 L41.524,4.522 L44.044,0.13 L45.952,0.13 L42.35,6.372 L42.35,11.122 L40.691,11.122 L40.691,6.372 L40.691,6.372 Z" id="Shape"></path>
            </g>
            <g id="Group" transform="translate(35.000000, 62.000000)" fill="#FFFFFF" sketch:type="MSShapeGroup">
                <path d="M-0.004,12.177 L2.31,0.36 L6.082,8.903 L9.99,0.36 L12.069,12.176 L10.367,12.176 L9.306,5.542 L6.053,12.682 L2.893,5.535 L1.711,12.176 L-0.004,12.176 L-0.004,12.177 Z" id="Shape"></path>
                <path d="M15.618,7.714 L15.618,12.177 L13.96,12.177 L13.96,1.187 L15.838,1.187 C16.759,1.187 17.454,1.25 17.923,1.379 C18.399,1.506 18.816,1.749 19.177,2.104 C19.808,2.722 20.124,3.5 20.124,4.439 C20.124,5.444 19.787,6.242 19.113,6.83 C18.438,7.419 17.53,7.713 16.386,7.713 L15.618,7.713 L15.618,7.714 Z M15.618,6.176 L16.237,6.176 C17.76,6.176 18.522,5.589 18.522,4.419 C18.522,3.285 17.737,2.717 16.166,2.717 L15.618,2.717 L15.618,6.176 L15.618,6.176 Z" id="Shape"></path>
            </g>
            <path d="M55.84,68.632 C55.84,67.084 56.406,65.756 57.54,64.644 C58.669,63.534 60.027,62.98 61.613,62.98 C63.178,62.98 64.521,63.539 65.641,64.659 C66.766,65.78 67.328,67.125 67.328,68.696 C67.328,70.277 66.764,71.617 65.635,72.718 C64.5,73.823 63.132,74.376 61.528,74.376 C60.109,74.376 58.835,73.884 57.705,72.902 C56.461,71.816 55.84,70.393 55.84,68.632 L55.84,68.632 Z M57.513,68.65 C57.513,69.863 57.922,70.861 58.737,71.644 C59.549,72.426 60.486,72.818 61.549,72.818 C62.701,72.818 63.675,72.42 64.468,71.624 C65.26,70.818 65.657,69.835 65.657,68.679 C65.657,67.508 65.264,66.527 64.481,65.734 C63.704,64.938 62.74,64.54 61.591,64.54 C60.446,64.54 59.481,64.937 58.693,65.734 C57.906,66.52 57.513,67.493 57.513,68.65 L57.513,68.65 Z" id="Shape" fill="#FFFFFF" sketch:type="MSShapeGroup"></path>
            <path d="M75.198,64.817 L73.853,65.614 C73.6,65.177 73.363,64.892 73.133,64.76 C72.897,64.608 72.59,64.531 72.215,64.531 C71.755,64.531 71.373,64.661 71.069,64.924 C70.765,65.181 70.614,65.503 70.614,65.892 C70.614,66.429 71.013,66.862 71.809,67.189 L72.907,67.637 C73.798,67.998 74.451,68.44 74.864,68.958 C75.277,69.479 75.482,70.117 75.482,70.871 C75.482,71.884 75.147,72.719 74.472,73.38 C73.793,74.045 72.95,74.376 71.946,74.376 C70.991,74.376 70.204,74.093 69.582,73.525 C68.971,72.958 68.588,72.163 68.436,71.137 L70.116,70.766 C70.191,71.412 70.325,71.857 70.515,72.105 C70.856,72.581 71.354,72.817 72.009,72.817 C72.526,72.817 72.955,72.643 73.297,72.298 C73.638,71.951 73.809,71.513 73.809,70.981 C73.809,70.769 73.78,70.574 73.72,70.396 C73.661,70.217 73.569,70.053 73.443,69.905 C73.319,69.755 73.155,69.615 72.956,69.485 C72.757,69.354 72.52,69.23 72.244,69.111 L71.183,68.671 C69.678,68.034 68.926,67.106 68.926,65.882 C68.926,65.056 69.242,64.367 69.873,63.813 C70.504,63.253 71.29,62.972 72.228,62.972 C73.497,62.972 74.486,63.587 75.198,64.817 L75.198,64.817 Z" id="Shape" fill="#FFFFFF" sketch:type="MSShapeGroup"></path>
            <path d="M78.705,63.187 L78.705,74.177 L77.046,74.177 L77.046,63.187 L78.705,63.187 L78.705,63.187 Z" id="Shape" fill="#FFFFFF" sketch:type="MSShapeGroup"></path>
            <g id="Group" transform="translate(30.000000, 76.000000)" fill="#FFFFFF" sketch:type="MSShapeGroup">
                <path d="M1.545,1.243 L1.545,7.859 C1.545,8.8 1.699,9.491 2.007,9.928 C2.467,10.558 3.115,10.873 3.95,10.873 C4.791,10.873 5.441,10.558 5.902,9.928 C6.21,9.506 6.364,8.815 6.364,7.859 L6.364,1.243 L8.022,1.243 L8.022,8.317 C8.022,9.476 7.662,10.429 6.94,11.179 C6.128,12.015 5.132,12.432 3.95,12.432 C2.769,12.432 1.775,12.015 0.969,11.179 C0.247,10.429 -0.114,9.476 -0.114,8.317 L-0.114,1.243 L1.545,1.243 L1.545,1.243 Z" id="Shape"></path>
                <path d="M9.121,12.233 L11.433,0.417 L15.207,8.959 L19.115,0.417 L21.194,12.233 L19.493,12.233 L18.432,5.6 L15.179,12.74 L12.018,5.593 L10.836,12.235 L9.121,12.235 L9.121,12.233 Z" id="Shape"></path>
            </g>
        </g>
    </g>
</svg>