<?xml version="1.0" encoding="utf-8"?>
<!-- Generator: Adobe Illustrator 16.0.0, SVG Export Plug-In . SVG Version: 6.00 Build 0)  -->
<!DOCTYPE svg PUBLIC "-//W3C//DTD SVG 1.1//EN" "http://www.w3.org/Graphics/SVG/1.1/DTD/svg11.dtd">
<svg version="1.1" id="Ebene_1" xmlns="http://www.w3.org/2000/svg" xmlns:xlink="http://www.w3.org/1999/xlink" x="0px" y="0px"
	 width="103.424px" height="103.493px" viewBox="0 0 103.424 103.493" enable-background="new 0 0 103.424 103.493"
	 xml:space="preserve">
<g>
	<g>
		<path fill="#009FE3" d="M25.942,57.073l1.052-1.717l3.1,0.647c1.222,0.257,2.087,0.495,2.594,0.711
			c-0.252-0.239-0.49-0.48-0.715-0.724c-0.225-0.243-0.449-0.491-0.669-0.742l-0.309-0.354l-2.188-2.499l1.094-1.785l4.972,6.39
			l8.154,1.653l-1.095,1.786l-3.031-0.665c-0.606-0.129-1.141-0.262-1.603-0.398c-0.463-0.136-0.861-0.274-1.194-0.416
			c0.352,0.278,0.667,0.577,0.947,0.896l0.752,0.87l0.398,0.455l1.917,2.216l-1.146,1.871l-5.144-6.567L25.942,57.073z"/>
		<path fill="#009FE3" d="M31.538,47.942l1.053-1.718l3.1,0.648c1.222,0.258,2.086,0.495,2.592,0.711
			c-0.251-0.239-0.489-0.48-0.714-0.723c-0.225-0.244-0.448-0.491-0.667-0.743l-0.31-0.354l-2.188-2.499l1.094-1.786l4.971,6.392
			l8.156,1.652l-1.094,1.785l-3.032-0.664c-0.606-0.13-1.14-0.263-1.603-0.399c-0.463-0.135-0.862-0.274-1.194-0.416
			c0.352,0.278,0.667,0.577,0.946,0.896l0.753,0.87l0.399,0.455l1.918,2.215l-1.147,1.871l-5.145-6.567L31.538,47.942z"/>
		<path fill="#009FE3" d="M37.04,38.963l1.069-1.743l5.33,2.179l0.958,0.4l2.078,0.887c0.349,0.152,0.67,0.293,0.959,0.418
			c0.289,0.127,0.549,0.243,0.782,0.346l0.697,0.311c-0.118-0.097-0.227-0.182-0.321-0.256c-0.096-0.074-0.173-0.137-0.235-0.19
			l-1.381-1.162L45.16,38.63c-0.162-0.14-0.314-0.269-0.451-0.389c-0.138-0.119-0.258-0.227-0.364-0.321l-4.324-3.82l1.011-1.649
			L52.578,43.07l-0.858,1.403L37.04,38.963z"/>
		<path fill="#009FE3" d="M43.225,28.87l1.084-1.768l13.125,8.044l-1.083,1.768L43.225,28.87z"/>
	</g>
	<g>
		<defs>
			<rect id="SVGID_1_" x="2.37" width="108" height="100.865"/>
		</defs>
		<clipPath id="SVGID_2_">
			<use xlink:href="#SVGID_1_"  overflow="visible"/>
		</clipPath>
		<path clip-path="url(#SVGID_2_)" fill="#009FE3" d="M74.496,7.988l-3.407,5.581c0.106,0.056,0.216,0.103,0.321,0.158
			c14.154,7.409,22.944,21.926,22.944,37.885c0,23.563-19.169,42.735-42.732,42.735c-9.022,0-17.642-2.779-24.937-8.028
			l-3.402,5.572c8.325,5.866,18.107,8.974,28.339,8.974c27.157,0,49.253-22.096,49.253-49.253
			C100.875,33.244,90.766,16.535,74.496,7.988"/>
		<path clip-path="url(#SVGID_2_)" fill="#009FE3" d="M10.742,79.073l3.809-6.241c-3.693-6.44-5.663-13.737-5.663-21.219
			C8.887,28.05,28.058,8.88,51.622,8.88c0.642,0,1.283,0.038,1.925,0.065l3.814-6.248c-0.756-0.087-1.514-0.164-2.276-0.217
			c-1.146-0.079-2.31-0.12-3.463-0.12C24.463,2.361,2.37,24.456,2.37,51.613c0,9.187,2.547,18.151,7.365,25.92
			C10.06,78.057,10.4,78.563,10.742,79.073"/>
	</g>
	<g>
		<path fill="#FFFFFF" d="M68.866,21.26h4.742v-4.3h1.658v10.991h-1.658v-5.132h-4.742v5.132h-1.658V16.96h1.658V21.26z"/>
	</g>
	<g>
		<path fill="#FFFFFF" d="M65.781,30.576h-4.407v2.64h4.278v1.56h-4.278v3.673h4.407v1.559h-6.065V29.017h6.065V30.576z"/>
		<path fill="#FFFFFF" d="M68.451,29.017v10.991h-1.659V29.017H68.451z"/>
		<path fill="#FFFFFF" d="M69.94,40.008V29.017h2.307c1.105,0,1.979,0.109,2.619,0.328c0.688,0.213,1.312,0.576,1.872,1.089
			c1.134,1.034,1.702,2.395,1.702,4.079c0,1.689-0.592,3.057-1.772,4.1c-0.594,0.522-1.217,0.885-1.866,1.089
			c-0.607,0.205-1.468,0.307-2.584,0.307H69.94z M71.599,38.449h0.746c0.746,0,1.365-0.079,1.858-0.235
			c0.493-0.167,0.939-0.429,1.34-0.79c0.814-0.746,1.223-1.715,1.223-2.912c0-1.206-0.403-2.183-1.211-2.933
			c-0.725-0.67-1.796-1.003-3.21-1.003h-0.746V38.449z"/>
		<path fill="#FFFFFF" d="M85.423,30.576h-4.405v2.64h4.277v1.56h-4.277v3.673h4.405v1.559h-6.064V29.017h6.064V30.576z"/>
	</g>
	<g>
		<path fill="#FFFFFF" d="M53.953,41.073v9.432h3.232v1.559h-4.891V41.073H53.953z"/>
		<path fill="#FFFFFF" d="M57.737,52.064V41.073h1.651c0.735,0,1.322,0.058,1.76,0.171c0.44,0.114,0.813,0.306,1.117,0.577
			c0.309,0.281,0.553,0.629,0.732,1.046c0.186,0.423,0.277,0.85,0.277,1.282c0,0.788-0.301,1.455-0.904,2
			c0.585,0.199,1.045,0.548,1.382,1.046c0.342,0.493,0.512,1.068,0.512,1.722c0,0.859-0.303,1.585-0.912,2.178
			c-0.364,0.367-0.774,0.621-1.229,0.763c-0.498,0.138-1.122,0.206-1.872,0.206H57.737z M59.397,45.793h0.519
			c0.617,0,1.069-0.137,1.355-0.41c0.287-0.273,0.431-0.675,0.431-1.207c0-0.518-0.147-0.91-0.439-1.179
			c-0.296-0.268-0.724-0.402-1.282-0.402h-0.583V45.793z M59.397,50.505h1.024c0.75,0,1.299-0.147,1.65-0.441
			c0.371-0.318,0.556-0.722,0.556-1.21c0-0.475-0.18-0.873-0.534-1.196c-0.347-0.318-0.965-0.478-1.856-0.478h-0.84V50.505z"/>
		<path fill="#FFFFFF" d="M71.404,42.632h-4.408v2.641h4.278v1.559h-4.278v3.673h4.408v1.559h-6.066V41.073h6.066V42.632z"/>
		<path fill="#FFFFFF" d="M76.284,47.38l3.403,4.684h-2.03l-3.141-4.499h-0.298v4.499h-1.659V41.073h1.945
			c1.452,0,2.498,0.273,3.145,0.819c0.713,0.607,1.068,1.409,1.068,2.406c0,0.778-0.223,1.448-0.67,2.008
			C77.601,46.865,77.013,47.224,76.284,47.38z M74.218,46.121h0.527c1.57,0,2.356-0.601,2.356-1.801
			c0-1.125-0.765-1.688-2.292-1.688h-0.592V46.121z"/>
		<path fill="#FFFFFF" d="M85.72,46.341h4.541v0.362c0,0.827-0.096,1.558-0.291,2.194c-0.188,0.588-0.51,1.139-0.961,1.651
			c-1.021,1.148-2.319,1.722-3.894,1.722c-1.537,0-2.855-0.554-3.949-1.666c-1.098-1.115-1.646-2.453-1.646-4.015
			c0-1.594,0.558-2.947,1.674-4.057c1.114-1.115,2.472-1.673,4.07-1.673c0.858,0,1.661,0.175,2.404,0.525
			c0.714,0.35,1.413,0.917,2.103,1.704l-1.184,1.132c-0.9-1.201-1.999-1.8-3.295-1.8c-1.161,0-2.138,0.4-2.924,1.202
			c-0.789,0.788-1.184,1.775-1.184,2.961c0,1.225,0.438,2.233,1.318,3.026c0.819,0.735,1.71,1.103,2.669,1.103
			c0.815,0,1.55-0.274,2.198-0.823c0.65-0.554,1.014-1.216,1.09-1.989H85.72V46.341z"/>
	</g>
	<g>
		<path fill="#FFFFFF" d="M50.867,54.689h-4.408v2.641h4.278v1.56h-4.278v3.673h4.408v1.56H44.8V53.13h6.067V54.689z"/>
		<path fill="#FFFFFF" d="M55.601,59.437l3.402,4.685h-2.029l-3.139-4.5h-0.299v4.5h-1.659V53.13h1.943
			c1.452,0,2.501,0.272,3.146,0.819c0.713,0.607,1.068,1.409,1.068,2.406c0,0.777-0.223,1.447-0.67,2.006
			C56.92,58.922,56.331,59.281,55.601,59.437z M53.537,58.177h0.525c1.571,0,2.358-0.6,2.358-1.801c0-1.125-0.765-1.687-2.293-1.687
			h-0.591V58.177z"/>
		<path fill="#FFFFFF" d="M82.439,54.761l-1.346,0.796c-0.252-0.437-0.491-0.721-0.72-0.854c-0.237-0.152-0.543-0.229-0.918-0.229
			c-0.46,0-0.843,0.131-1.146,0.393c-0.304,0.256-0.455,0.579-0.455,0.968c0,0.537,0.397,0.968,1.195,1.297l1.097,0.448
			c0.892,0.361,1.544,0.802,1.957,1.322c0.412,0.52,0.619,1.158,0.619,1.913c0,1.011-0.337,1.846-1.011,2.508
			c-0.678,0.665-1.521,0.997-2.526,0.997c-0.955,0-1.741-0.284-2.364-0.851c-0.612-0.566-0.995-1.362-1.146-2.388l1.68-0.37
			c0.077,0.644,0.21,1.092,0.399,1.339c0.342,0.474,0.84,0.711,1.493,0.711c0.52,0,0.948-0.173,1.29-0.519
			c0.343-0.345,0.514-0.785,0.514-1.316c0-0.213-0.031-0.409-0.09-0.587c-0.06-0.177-0.151-0.341-0.277-0.491
			c-0.127-0.149-0.289-0.289-0.488-0.418c-0.199-0.131-0.437-0.256-0.711-0.374l-1.061-0.441c-1.506-0.636-2.256-1.565-2.256-2.789
			c0-0.826,0.314-1.515,0.945-2.069c0.631-0.56,1.416-0.84,2.356-0.84C80.737,52.917,81.727,53.532,82.439,54.761z"/>
		<path fill="#FFFFFF" d="M85.691,59.372l-3.588-6.242h1.909l2.512,4.392l2.52-4.392h1.908l-3.602,6.242v4.75h-1.659V59.372z"/>
	</g>
	<g>
		<path fill="#FFFFFF" d="M36.996,76.177L39.31,64.36l3.772,8.543l3.908-8.543l2.079,11.816h-1.702l-1.061-6.634l-3.253,7.14
			l-3.16-7.147l-1.182,6.641H36.996z"/>
		<path fill="#FFFFFF" d="M52.618,71.714v4.463H50.96v-10.99h1.878c0.921,0,1.616,0.063,2.085,0.192
			c0.476,0.127,0.893,0.37,1.254,0.725c0.631,0.618,0.947,1.396,0.947,2.335c0,1.005-0.337,1.803-1.011,2.391
			c-0.675,0.589-1.583,0.883-2.727,0.883H52.618z M52.618,70.176h0.619c1.523,0,2.285-0.587,2.285-1.757
			c0-1.134-0.785-1.702-2.356-1.702h-0.548V70.176z"/>
	</g>
	<g>
		<path fill="#FFFFFF" d="M57.84,70.632c0-1.548,0.566-2.876,1.7-3.988c1.129-1.11,2.487-1.664,4.073-1.664
			c1.565,0,2.908,0.559,4.028,1.679c1.125,1.121,1.687,2.466,1.687,4.037c0,1.581-0.564,2.921-1.693,4.022
			c-1.135,1.105-2.503,1.658-4.107,1.658c-1.419,0-2.693-0.492-3.823-1.474C58.461,73.816,57.84,72.393,57.84,70.632z M59.513,70.65
			c0,1.213,0.409,2.211,1.224,2.994c0.812,0.782,1.749,1.174,2.812,1.174c1.152,0,2.126-0.398,2.919-1.194
			c0.792-0.806,1.189-1.789,1.189-2.945c0-1.171-0.393-2.152-1.176-2.945c-0.777-0.796-1.741-1.194-2.89-1.194
			c-1.145,0-2.11,0.397-2.898,1.194C59.906,68.52,59.513,69.493,59.513,70.65z"/>
	</g>
	<g>
		<path fill="#FFFFFF" d="M77.198,66.817l-1.345,0.797c-0.253-0.437-0.49-0.722-0.72-0.854c-0.236-0.152-0.543-0.229-0.918-0.229
			c-0.46,0-0.842,0.13-1.146,0.393c-0.304,0.257-0.455,0.579-0.455,0.968c0,0.537,0.399,0.97,1.195,1.297l1.098,0.448
			c0.891,0.361,1.544,0.803,1.957,1.321c0.413,0.521,0.618,1.159,0.618,1.913c0,1.013-0.335,1.848-1.01,2.509
			c-0.679,0.665-1.522,0.996-2.526,0.996c-0.955,0-1.742-0.283-2.364-0.851c-0.611-0.567-0.994-1.362-1.146-2.388l1.68-0.371
			c0.075,0.646,0.209,1.091,0.399,1.339c0.341,0.476,0.839,0.712,1.494,0.712c0.517,0,0.946-0.174,1.288-0.519
			c0.341-0.347,0.512-0.785,0.512-1.317c0-0.212-0.029-0.407-0.089-0.585c-0.059-0.179-0.151-0.343-0.277-0.491
			c-0.124-0.15-0.288-0.29-0.487-0.42c-0.199-0.131-0.436-0.255-0.712-0.374l-1.061-0.44c-1.505-0.637-2.257-1.565-2.257-2.789
			c0-0.826,0.316-1.515,0.947-2.069c0.631-0.56,1.417-0.841,2.355-0.841C75.497,64.972,76.486,65.587,77.198,66.817z"/>
	</g>
	<g>
		<path fill="#FFFFFF" d="M80.705,65.187v10.99h-1.659v-10.99H80.705z"/>
	</g>
	<g>
		<path fill="#FFFFFF" d="M31.545,77.243v6.616c0,0.941,0.154,1.632,0.462,2.069c0.46,0.63,1.108,0.945,1.943,0.945
			c0.841,0,1.491-0.315,1.952-0.945c0.308-0.422,0.462-1.113,0.462-2.069v-6.616h1.658v7.074c0,1.159-0.36,2.112-1.082,2.862
			c-0.812,0.836-1.808,1.253-2.99,1.253c-1.181,0-2.175-0.417-2.981-1.253c-0.722-0.75-1.083-1.703-1.083-2.862v-7.074H31.545z"/>
		<path fill="#FFFFFF" d="M39.121,88.233l2.312-11.816l3.774,8.542l3.908-8.542l2.079,11.816h-1.701L48.432,81.6l-3.253,7.14
			l-3.161-7.147l-1.182,6.642H39.121z"/>
	</g>
</g>
</svg>
